<?xml version="1.0" encoding="UTF-8" standalone="no"?>
<!-- Created with Inkscape (http://www.inkscape.org/) -->

<svg
   xmlns:dc="http://purl.org/dc/elements/1.1/"
   xmlns:cc="http://creativecommons.org/ns#"
   xmlns:rdf="http://www.w3.org/1999/02/22-rdf-syntax-ns#"
   xmlns:svg="http://www.w3.org/2000/svg"
   xmlns="http://www.w3.org/2000/svg"
   xmlns:sodipodi="http://sodipodi.sourceforge.net/DTD/sodipodi-0.dtd"
   xmlns:inkscape="http://www.inkscape.org/namespaces/inkscape"
   width="210mm"
   height="297mm"
   viewBox="0 0 744.09448819 1052.3622047"
   id="svg2"
   version="1.1"
   inkscape:version="0.91 r13725"
   sodipodi:docname="nero arancione rosso poi rosa poi azzurro.svg">
  <defs
     id="defs4" />
  <sodipodi:namedview
     id="base"
     pagecolor="#ffffff"
     bordercolor="#666666"
     borderopacity="1.0"
     inkscape:pageopacity="0.0"
     inkscape:pageshadow="2"
     inkscape:zoom="47.3686"
     inkscape:cx="259.05088"
     inkscape:cy="622.03457"
     inkscape:document-units="px"
     inkscape:current-layer="layer1"
     showgrid="false"
     inkscape:window-width="1855"
     inkscape:window-height="1056"
     inkscape:window-x="65"
     inkscape:window-y="24"
     inkscape:window-maximized="1" />
  <metadata
     id="metadata7">
    <rdf:RDF>
      <cc:Work
         rdf:about="">
        <dc:format>image/svg+xml</dc:format>
        <dc:type
           rdf:resource="http://purl.org/dc/dcmitype/StillImage" />
        <dc:title></dc:title>
      </cc:Work>
    </rdf:RDF>
  </metadata>
  <g
     inkscape:label="Layer 1"
     inkscape:groupmode="layer"
     id="layer1">
    <path
       style="fill:none;fill-rule:evenodd;stroke:#000000;stroke-width:1px;stroke-linecap:butt;stroke-linejoin:miter;stroke-opacity:1"
       d="m 244.48058,438.76389 c 1.51871,-0.57025 2.27935,-0.53264 3.72846,-0.53264 0.17755,0 0.4071,0.12554 0.53264,0 0.12554,-0.12554 -0.12554,-0.40709 0,-0.53264 0.0332,-0.0332 2.56675,0.0241 2.66319,0 0.38515,-0.0963 0.68864,-0.40709 1.06527,-0.53264 0.28827,-0.0961 1.9491,0 2.13055,0 1.06528,0 2.13055,0 3.19583,0 3.72846,0 7.45692,0 11.18538,0 1.24282,0 2.48564,0 3.72846,0 0.17755,0 0.4071,0.12555 0.53264,0 0.12554,-0.12554 0,-0.35509 0,-0.53263"
       id="path3336"
       inkscape:connector-curvature="0" />
    <path
       style="fill:none;fill-rule:evenodd;stroke:#ff6600;stroke-width:1px;stroke-linecap:butt;stroke-linejoin:miter;stroke-opacity:1"
       d="m 245.07796,435.39231 c 0.47148,0 0.94296,0 1.41444,0 0.0985,0 0.19704,0 0.29556,0 0.0352,0 0.0706,0.004 0.10555,0 0.0288,-0.003 0.0557,-0.0175 0.0845,-0.0211 0.0279,-0.003 0.0565,0.003 0.0844,0 0.0288,-0.004 0.0557,-0.017 0.0845,-0.0211 0.0209,-0.003 0.0426,0.004 0.0633,0 0.0154,-0.003 0.0268,-0.018 0.0422,-0.0211 0.12006,0 0.0139,0.009 0.10556,-0.0211 0.007,-0.002 0.0141,0 0.0211,0 0.0141,0 0.0281,0 0.0422,0 0.0704,0 0.14074,0 0.21111,0 0.22187,0 -0.0546,0.007 0.16889,-0.0211 0.0279,-0.004 0.0563,0 0.0844,0 0.0282,0 0.0563,0 0.0845,0 0.0704,0 0.14074,0 0.21111,0 0.0352,0 0.0711,0.007 0.10555,0 0.0154,-0.003 0.0268,-0.018 0.0422,-0.0211 0.0414,-0.008 0.085,0.007 0.12667,0 0.022,-0.004 0.0415,-0.0167 0.0633,-0.0211 0.0138,-0.003 0.0282,0 0.0422,0 0.0211,0 0.0422,0 0.0633,0 0.0563,0 0.11259,0 0.16889,0 0.0281,0 0.0568,0.006 0.0844,0 0.0218,-0.004 0.0412,-0.0183 0.0633,-0.0211 0.0349,-0.004 0.0705,0.004 0.10556,0 0.0357,-0.004 0.0704,-0.0141 0.10555,-0.0211 0.0422,0 0.0846,0.004 0.12667,0 0.0427,-0.004 0.0844,-0.0141 0.12667,-0.0211 0.0563,-0.007 0.11228,-0.0173 0.16888,-0.0211 0.39227,0 -0.0761,0.008 0.27445,-0.0211 0.0421,-0.004 0.0844,0 0.12666,0 0.0845,0 0.16889,0 0.25334,0 0.0211,0 0.0422,0 0.0633,0 0.0211,0 0.0425,0.003 0.0633,0 0.022,-0.004 0.0415,-0.0168 0.0633,-0.0211 0.0276,-0.006 0.0563,0 0.0844,0 0.0633,0 0.12693,0.006 0.19,0 0.0426,-0.004 0.084,-0.0172 0.12666,-0.0211 0.0351,-0.003 0.0705,0.003 0.10556,0 0.0426,-0.004 0.084,-0.0176 0.12667,-0.0211 0.0421,-0.004 0.0844,0 0.12666,0 0.0352,0 0.0704,0 0.10556,0 0.14074,0 0.28148,0 0.42222,0 0.0422,0 0.0844,0 0.12666,0 0.0211,0 0.0425,0.003 0.0633,0 0.022,-0.004 0.0414,-0.0174 0.0633,-0.0211 0.0208,-0.003 0.0422,0 0.0633,0 0.0352,0 0.0705,0.003 0.10556,0 0.0426,-0.004 0.0844,-0.0141 0.12666,-0.0211 0.0493,0 0.0987,0.004 0.14778,0 0.0496,-0.004 0.0985,-0.0141 0.14778,-0.0211 0.0633,-0.007 0.1264,-0.0171 0.19,-0.0211 0.0492,-0.003 0.0985,0 0.14778,0 0.0493,0 0.0985,0 0.14777,0 0.14778,0 0.29556,0 0.44333,0 0.0563,0 0.1126,0 0.16889,0 0.0422,0 0.0849,0.006 0.12667,0 0.0506,-0.008 0.0971,-0.035 0.14778,-0.0422 0.0178,-0.003 0.24612,0.002 0.27444,0 0.35048,-0.027 -0.0699,-0.0118 0.31667,-0.0633 0.0488,-0.007 0.0988,0.006 0.14777,0 0.0713,-0.008 0.13995,-0.0329 0.21111,-0.0422 0.18196,-0.0237 0.3666,-0.0212 0.54889,-0.0422 0.0919,-0.0106 0.18216,-0.0351 0.27444,-0.0422 9.1e-4,-7e-5 0.54708,7e-5 0.54889,0 0.78143,-0.0301 -0.23458,-0.005 0.54889,-0.0633 8.2e-4,-6e-5 0.58934,6e-5 0.59111,0 0.10572,-0.004 0.21109,-0.0143 0.31666,-0.0211 0.11258,-0.007 0.22549,-0.0102 0.33778,-0.0211 0.10599,-0.0102 0.2107,-0.0316 0.31666,-0.0422 0.10527,-0.0105 0.21137,-0.0109 0.31667,-0.0211 0.11294,-0.0109 0.22453,-0.0351 0.33777,-0.0422 0.11238,-0.007 0.22525,0.004 0.33778,0 0.0987,-0.003 0.19685,-0.0176 0.29556,-0.0211 0.0984,-0.004 0.19703,0 0.29555,0 0.18296,0 0.36592,0 0.54889,0 0.17592,0 0.35185,0 0.52777,0 0.0915,0 0.18297,0 0.27445,0 0.0633,0 0.12674,-0.003 0.19,0 0.0776,0.004 0.15457,0.0176 0.23222,0.0211 0.0773,0.004 0.15481,0 0.23222,0 0.22518,0 0.45037,0 0.67555,0 0.0774,0 0.1549,-0.004 0.23222,0 0.0706,0.003 0.14049,0.0174 0.21111,0.0211 0.11244,0.006 0.22519,0 0.33778,0 0.0774,0 0.15481,0 0.23222,0 0.0281,0 0.0568,-0.006 0.0844,0 0.0218,0.004 0.0413,0.018 0.0633,0.0211 0.11032,0.0158 0.0586,-0.0158 0.16889,0 0.022,0.003 0.0413,0.018 0.0633,0.0211 0.0279,0.004 0.0563,0 0.0844,0 0.0493,0 0.0985,0 0.14778,0 0.18296,0 0.36593,0 0.54889,0 0.41518,0 0.83036,0 1.24555,0 0.11963,0 0.23926,0 0.35889,0 0.0563,0 0.11259,0 0.16888,0 0.0282,0 0.0566,-0.004 0.0845,0 0.022,0.003 0.0413,0.018 0.0633,0.0211 0.0279,0.004 0.0563,0 0.0845,0 0.0352,0 0.0704,0 0.10555,0 0.0422,0 0.0846,-0.004 0.12667,0 0.0427,0.004 0.084,0.0172 0.12666,0.0211 0.035,0.003 0.0705,-0.003 0.10556,0 0.0496,0.004 0.0982,0.0173 0.14778,0.0211 0.0842,0.006 0.16918,-0.007 0.25333,0 0.0853,0.007 0.16802,0.0351 0.25333,0.0422 0.0421,0.003 0.0844,0 0.12667,0 0.0352,0 0.0704,0 0.10555,0 0.1337,0 0.26741,0 0.40111,0 0.42926,0 0.85852,0 1.28777,0 0.29556,0 0.59111,0 0.88667,0 0.0844,0 0.16889,0 0.25333,0 0.003,0 0.13763,-0.003 0.14778,0 0.11961,0.0598 -0.0315,-0.008 0.0844,0.0211 0.0305,0.008 0.0536,0.036 0.0845,0.0422 0.0207,0.004 0.0425,-0.003 0.0633,0 0.022,0.004 0.0415,0.0168 0.0633,0.0211 0.0138,0.003 0.0284,-0.003 0.0422,0 0.0218,0.004 0.0414,0.0174 0.0633,0.0211 0.0208,0.003 0.0425,-0.003 0.0633,0 0.022,0.004 0.0415,0.0168 0.0633,0.0211 0.0138,0.003 0.0282,0 0.0422,0 0.0422,0 0.0845,0 0.12667,0 0.0141,0 0.0286,-0.003 0.0422,0 0.0153,0.004 0.0273,0.0161 0.0422,0.0211 0.0119,0.004 0.0495,0 0.0633,0"
       id="path3338"
       inkscape:connector-curvature="0" />
    <path
       style="fill:none;fill-rule:evenodd;stroke:#ff0000;stroke-width:1px;stroke-linecap:butt;stroke-linejoin:miter;stroke-opacity:1"
       d="m 245.92241,432.20454 25.20657,0.27445"
       id="path3340"
       inkscape:connector-curvature="0" />
    <path
       style="fill:none;fill-rule:evenodd;stroke:#ffd5d5;stroke-width:1px;stroke-linecap:butt;stroke-linejoin:miter;stroke-opacity:1"
       d="m 246.36574,429.96678 24.6999,0.33777"
       id="path3342"
       inkscape:connector-curvature="0" />
    <path
       style="fill:none;fill-rule:evenodd;stroke:#d5f6ff;stroke-width:1px;stroke-linecap:butt;stroke-linejoin:miter;stroke-opacity:1"
       d="m 247.08351,427.94012 23.79213,-0.21111"
       id="path3344"
       inkscape:connector-curvature="0" />
  </g>
</svg>
