<?xml version="1.0" encoding="UTF-8" standalone="no"?>
<!-- Created with Inkscape (http://www.inkscape.org/) -->

<svg
   xmlns:dc="http://purl.org/dc/elements/1.1/"
   xmlns:cc="http://creativecommons.org/ns#"
   xmlns:rdf="http://www.w3.org/1999/02/22-rdf-syntax-ns#"
   xmlns:svg="http://www.w3.org/2000/svg"
   xmlns="http://www.w3.org/2000/svg"
   xmlns:sodipodi="http://sodipodi.sourceforge.net/DTD/sodipodi-0.dtd"
   xmlns:inkscape="http://www.inkscape.org/namespaces/inkscape"
   width="131.78722mm"
   height="92.273041mm"
   viewBox="0 0 466.96258 326.95172"
   id="svg5160"
   version="1.1"
   inkscape:version="0.91 r13725"
   sodipodi:docname="pandoctopus.svg"
   inkscape:export-filename="/home/francesco/rotterdam/pandoctopus.svg.png"
   inkscape:export-xdpi="127.4"
   inkscape:export-ydpi="127.4">
  <defs
     id="defs5162" />
  <sodipodi:namedview
     id="base"
     pagecolor="#222222"
     bordercolor="#666666"
     borderopacity="1.0"
     inkscape:pageopacity="1"
     inkscape:pageshadow="2"
     inkscape:zoom="1.5654359"
     inkscape:cx="77.379451"
     inkscape:cy="186.7733"
     inkscape:document-units="px"
     inkscape:current-layer="layer1"
     showgrid="false"
     fit-margin-top="0"
     fit-margin-left="0"
     fit-margin-right="0"
     fit-margin-bottom="0"
     inkscape:window-width="1920"
     inkscape:window-height="1056"
     inkscape:window-x="0"
     inkscape:window-y="24"
     inkscape:window-maximized="1" />
  <metadata
     id="metadata5165">
    <rdf:RDF>
      <cc:Work
         rdf:about="">
        <dc:format>image/svg+xml</dc:format>
        <dc:type
           rdf:resource="http://purl.org/dc/dcmitype/StillImage" />
        <dc:title></dc:title>
      </cc:Work>
    </rdf:RDF>
  </metadata>
  <g
     inkscape:label="Layer 1"
     inkscape:groupmode="layer"
     id="layer1"
     transform="translate(599.90985,-368.88634)">
    <g
       id="g3658">
      <path
         inkscape:connector-curvature="0"
         id="path4218"
         d="m -544.80579,618.82572 c 1.06055,-0.70703 3.2182,-2.31199 4.6472,-2.78832 0.74934,-0.24979 1.58128,-0.19479 2.3236,-0.46472 0.97658,-0.35512 1.81843,-1.02113 2.78832,-1.39416 1.05257,-0.40484 2.17517,-0.59779 3.25303,-0.92944 0.9364,-0.28812 1.84169,-0.67701 2.78833,-0.92944 1.37994,-0.36798 2.81932,-0.50345 4.18247,-0.92944 13.24546,-4.13921 -6.44243,1.12934 6.50608,-2.3236 1.23427,-0.32913 2.48349,-0.6003 3.71776,-0.92944 3.41402,-0.9104 6.76425,-2.04698 10.22383,-2.78832 0.92135,-0.19743 1.85889,-0.30981 2.78833,-0.46472 1.08434,-0.30981 2.15418,-0.67585 3.25303,-0.92944 4.75848,-1.09811 0.85073,0.32436 5.57664,-1.39416 1.58208,-0.5753 3.70302,-1.47825 5.11191,-2.32359 0.66416,-0.3985 1.18182,-1.01802 1.85888,-1.39416 0.72922,-0.40513 1.59439,-0.52432 2.32361,-0.92944 1.35412,-0.7523 2.37279,-2.01977 3.71775,-2.78832 0.42532,-0.24304 0.94391,-0.27176 1.39416,-0.46472 0.63675,-0.2729 1.23925,-0.61963 1.85888,-0.92944 1.23925,-0.61963 2.51478,-1.17147 3.71776,-1.85888 0.48493,-0.27711 0.89459,-0.67966 1.39416,-0.92944 0.74613,-0.37307 1.5613,-0.59064 2.3236,-0.92944 0.63305,-0.28136 1.23925,-0.61962 1.85887,-0.92944 0.61963,-0.30981 1.27143,-0.56228 1.85889,-0.92944 0.6568,-0.4105 1.15109,-1.07959 1.85888,-1.39416 0.72179,-0.3208 1.6018,-0.14392 2.32359,-0.46472 0.70778,-0.31457 1.20208,-0.98366 1.85888,-1.39416 1.17492,-0.73432 2.54284,-1.12455 3.71776,-1.85888 0.65681,-0.4105 1.20208,-0.98365 1.85888,-1.39415 0.58746,-0.36717 1.23925,-0.61963 1.85888,-0.92944 1.23925,-0.61963 2.51478,-1.17147 3.71775,-1.85889 0.96987,-0.5542 1.78921,-1.35931 2.78833,-1.85888 0.43814,-0.21906 0.97411,-0.21268 1.39415,-0.46472 2.3236,-1.39415 0,-0.46471 1.39416,-1.39415 0.0866,-0.0577 1.82911,-0.89966 1.85888,-0.92944 0.24493,-0.24493 0.21979,-0.68451 0.46472,-0.92944 0.24493,-0.24493 0.65234,-0.25689 0.92944,-0.46472 0.35052,-0.26288 0.57893,-0.66656 0.92945,-0.92944 0.2771,-0.20783 0.65232,-0.25689 0.92943,-0.46472 2.44269,-1.83202 -0.86069,-0.0393 2.3236,-1.85888 0.60149,-0.34371 1.29515,-0.52678 1.85888,-0.92944 0.5348,-0.38199 0.88927,-0.97342 1.39416,-1.39416 1.23514,-1.02928 1.80678,-1.03244 3.25304,-1.85888 0.48493,-0.2771 0.92944,-0.61962 1.39416,-0.92944 0.92944,-0.61962 1.85888,-1.23925 2.78831,-1.85887 0.46472,-0.30982 0.95803,-0.58054 1.39416,-0.92944 0.34214,-0.27371 0.58732,-0.65574 0.92944,-0.92944 0.43613,-0.34892 0.95803,-0.58054 1.39416,-0.92945 0.34213,-0.2737 0.57893,-0.66655 0.92945,-0.92944 0.2771,-0.20783 0.65232,-0.25689 0.92943,-0.46472 0.35051,-0.26288 0.56488,-0.6864 0.92944,-0.92944 0.12889,-0.0859 0.35519,0.10954 0.46472,0 0.24493,-0.24493 0.21979,-0.6845 0.46472,-0.92943 0.10954,-0.10954 0.35518,0.10953 0.46472,0 0.10954,-0.10954 0.15491,-0.46472 0,-0.46472 -0.21907,0 -0.28244,0.3432 -0.46472,0.46472 -0.28821,0.19214 -0.60783,0.33607 -0.92944,0.46472 -0.90964,0.36385 -1.88782,0.54351 -2.78832,0.92943 -0.63675,0.2729 -1.20166,0.71038 -1.85888,0.92944 -3.08113,1.02705 -1.4161,0.11893 -4.18247,0.46472 -0.63377,0.0793 -1.23925,0.30982 -1.85888,0.46472 -0.61963,0.15491 -1.25296,0.26275 -1.85889,0.46472 -0.3286,0.10954 -0.59339,0.38071 -0.92943,0.46473 -0.42129,0.10532 -1.78375,0 -2.3236,0 -0.15491,0 -0.30981,0 -0.46472,0 -0.15491,0 -0.46472,0.1549 -0.46472,0 0,-0.15492 0.30981,0 0.46472,0 0.46472,0 0.92944,0 1.39416,0 0.46472,0 0.92944,0 1.39416,0 0.77453,0 1.56751,0.16801 2.3236,0 0.67627,-0.15028 1.1868,-0.76143 1.85888,-0.92945 4.72706,-1.18176 -1.39807,1.62798 4.18247,-0.46472 0.52296,-0.19611 0.8946,-0.67966 1.39416,-0.92944 0.87628,-0.43814 1.91204,-0.49129 2.78832,-0.92944 0.19595,-0.098 0.2569,-0.39544 0.46472,-0.46471 0.29391,-0.098 0.61963,0 0.92944,0 0.15491,0 0.30982,0 0.46472,0 0.15491,0 0.35518,-0.10954 0.46472,0 0.3756,0.3756 -1.13068,1.5954 -1.39416,1.85887 -0.53171,0.53171 -0.64809,0.55013 -0.92944,1.39416 -0.049,0.14696 0.10953,0.35519 0,0.46473 -0.10953,0.10953 -0.35519,-0.10954 -0.46471,0 -0.21908,0.21907 0.21906,0.71036 0,0.92944 -0.10954,0.10953 -0.35519,-0.10954 -0.46472,0 -0.10954,0.10953 0,0.30981 0,0.46472 0,0.30536 -0.0874,1.13196 0,1.39415 0.10953,0.32861 0.35518,0.60084 0.46472,0.92944 0.049,0.14696 -0.0693,0.32617 0,0.46472 0.098,0.19595 0.39543,0.25689 0.46471,0.46472 0.0798,0.23941 0,2.76145 0,3.25304 0,0.1549 0.10953,0.35519 0,0.46472 -0.10953,0.10953 -0.30981,0 -0.46471,0 -0.15491,0 -0.30982,0 -0.46472,0"
         style="fill:none;fill-rule:evenodd;stroke:#ffffff;stroke-width:0.830019px;stroke-linecap:butt;stroke-linejoin:miter;stroke-opacity:1" />
      <path
         inkscape:connector-curvature="0"
         id="path4220"
         d="m -401.67209,569.56542 c -0.78659,2.4143 -0.83433,2.22849 -2.32361,3.71776 -0.1549,0.15491 -0.28244,0.3432 -0.46472,0.46472 -0.2882,0.19214 -0.65233,0.25689 -0.92944,0.46472 -0.96316,0.72237 -1.83255,2.0237 -2.78831,2.78831 -0.43614,0.34891 -0.95803,0.58054 -1.39416,0.92944 -0.34213,0.27371 -0.57893,0.66656 -0.92944,0.92944 -0.27711,0.20784 -0.63242,0.28652 -0.92945,0.46473 -0.95785,0.57471 -1.89467,1.18864 -2.78831,1.85888 -0.52049,0.39036 -0.87367,1.00379 -1.39416,1.39415 -0.2771,0.20783 -0.68451,0.21979 -0.92944,0.46472 -1.12871,1.12871 0.13819,0.68241 -0.92944,1.39416 -0.57641,0.38428 -1.30467,0.51378 -1.85887,0.92944 -0.35052,0.26288 -0.61963,0.61963 -0.92945,0.92944 -0.61963,0.61963 -1.23925,1.23925 -1.85888,1.85888 -0.30981,0.30982 -0.55373,0.70402 -0.92944,0.92944 -0.42005,0.25203 -0.97411,0.21269 -1.39416,0.46472 -0.3757,0.22542 -0.5873,0.65573 -0.92943,0.92944 -0.43614,0.34891 -0.99923,0.5345 -1.39416,0.92944 -0.39494,0.39493 -0.53451,0.99922 -0.92944,1.39416 -0.24493,0.24493 -0.65234,0.25689 -0.92944,0.46472 -0.5785,0.43387 -1.79336,1.79335 -2.32361,2.32359 -0.1549,0.15491 -0.28243,0.34321 -0.46471,0.46472 -0.57642,0.38429 -1.30467,0.51379 -1.85888,0.92944 -0.35052,0.26289 -0.58731,0.65574 -0.92944,0.92945 -0.43613,0.34891 -0.95803,0.58053 -1.39416,0.92944 -0.34213,0.2737 -0.55374,0.70401 -0.92944,0.92944 -0.42004,0.25202 -0.98657,0.19299 -1.39416,0.46472 -0.54684,0.36455 -0.84732,1.0296 -1.39416,1.39415 -0.40758,0.27173 -0.95602,0.24566 -1.39416,0.46472 -0.49955,0.24978 -0.92944,0.61963 -1.39416,0.92944 -0.92944,0.61963 -1.85888,1.23925 -2.78831,1.85888 -0.46472,0.30981 -0.95803,0.58053 -1.39416,0.92944 -0.34214,0.27371 -0.55374,0.70402 -0.92944,0.92945 -0.42006,0.25202 -0.95602,0.24564 -1.39417,0.46471 -0.49955,0.24978 -0.90922,0.65233 -1.39415,0.92944 -6.76918,3.86811 1.96062,-1.21267 -3.25304,1.39416 -0.49956,0.24978 -0.8808,0.70943 -1.39416,0.92944 -2.08456,0.89338 -1.44436,0.0251 -3.25304,0.92944 -0.49956,0.24978 -0.8946,0.67966 -1.39416,0.92944 -0.43814,0.21907 -0.93933,0.28279 -1.39416,0.46472 -0.32161,0.12864 -0.60083,0.35519 -0.92944,0.46472 -0.14695,0.049 -0.32616,-0.0693 -0.46472,0 -2.12684,1.06342 1.972,-0.19262 -1.39415,0.92944 -1.3834,0.46113 0.9535,-1.10039 -1.39416,0.46471 -0.18228,0.12153 -0.2522,0.41159 -0.46472,0.46472 -0.45085,0.11272 -0.93577,-0.0764 -1.39417,0 -0.48319,0.0805 -0.92315,0.33015 -1.39416,0.46473 -1.22823,0.35093 -2.47078,0.65233 -3.71775,0.92944 -2.46147,0.54699 -4.94937,0.9798 -7.43552,1.39416 -0.92944,0.1549 -1.87926,0.21679 -2.78831,0.46472 -0.80481,0.21949 -1.50286,0.78021 -2.32361,0.92944 -9.5317,1.73303 3.3783,-1.90064 -5.11191,0.92943 -0.60593,0.20198 -1.24476,0.28926 -1.85888,0.46472 -0.47101,0.13458 -0.90923,0.39545 -1.39416,0.46472 -0.6134,0.0876 -1.24768,-0.10186 -1.85888,0 -0.34167,0.0569 -0.60784,0.33608 -0.92944,0.46472 -0.45482,0.18193 -0.93934,0.2828 -1.39416,0.46472 -0.32161,0.12865 -0.60783,0.33608 -0.92944,0.46472 -4.62384,1.54129 1.09535,-0.43814 -2.3236,0.92944 -0.45482,0.18193 -0.92943,0.30981 -1.39415,0.46472 -0.46472,0.15491 -0.91097,0.38419 -1.39417,0.46472 -0.4584,0.0764 -0.93576,-0.0764 -1.39416,0 -0.48319,0.0805 -0.91381,0.36865 -1.39416,0.46473 -0.30379,0.0607 -0.62887,-0.0751 -0.92944,0 -0.33604,0.084 -0.60083,0.35518 -0.92943,0.46472 -0.14696,0.049 -0.32617,-0.0693 -0.46472,0 -0.19595,0.098 -0.26878,0.36674 -0.46472,0.46472 -0.49415,0.24707 -0.43529,-0.24708 -0.92944,0 -0.19594,0.098 -0.26878,0.36674 -0.46472,0.46471 -0.13856,0.0693 -0.30981,0 -0.46472,0 -0.30981,0 -0.62888,-0.0751 -0.92944,0 -0.67208,0.16803 -1.21567,0.67215 -1.85888,0.92944 -0.45482,0.18193 -0.93934,0.28279 -1.39416,0.46472 -0.32161,0.12865 -0.5934,0.38071 -0.92944,0.46472 -0.30056,0.0751 -0.63552,-0.098 -0.92944,0 -0.20783,0.0693 -0.26878,0.36675 -0.46472,0.46472 -0.2771,0.13856 -0.65234,-0.13855 -0.92944,0 -0.19594,0.098 -0.26877,0.36675 -0.46472,0.46472 -0.37177,0.18589 -1.02238,-0.18589 -1.39416,0 -0.19594,0.098 -0.26877,0.36674 -0.46471,0.46472 -0.13856,0.0693 -0.35519,0.10954 -0.46472,0 -0.10954,-0.10954 0,-0.30981 0,-0.46472 0,-0.15491 -0.10954,-0.35518 0,-0.46472 0.24492,-0.24493 0.65232,-0.25689 0.92943,-0.46472 1.72898,-1.29674 0.0491,-0.72163 2.3236,-1.85888 0.43814,-0.21907 0.95602,-0.24565 1.39416,-0.46471 1.90715,-0.95359 0.88277,-0.70623 2.3236,-1.85889 0.43613,-0.34891 0.91522,-0.64208 1.39415,-0.92944 0.29703,-0.17821 0.68452,-0.21979 0.92945,-0.46472 0.24492,-0.24493 0.21979,-0.68451 0.46472,-0.92944 0.24492,-0.24493 0.64123,-0.27258 0.92944,-0.46472 0.19697,-0.13131 1.29802,-1.20188 1.39416,-1.39415 0,-1.23926 -0.15491,0.1549 0.46472,-0.46472 0.10953,-0.10954 -0.10954,-0.35519 0,-0.46472 0.10953,-0.10954 0.35518,0.10953 0.46472,0 0.10953,-0.10954 0,-0.61963 0,-0.46472 0,0.46472 0,0.92944 0,1.39416 -0.15491,0.1549 -0.39545,0.25689 -0.46472,0.46471 -0.67069,2.01206 0.8884,-0.1708 -0.46472,1.85888 -0.12153,0.18228 -0.36675,0.26878 -0.46472,0.46472 -0.0693,0.13856 0.0693,0.32617 0,0.46472 -0.098,0.19594 -0.30982,0.30981 -0.46472,0.46472 -0.36299,0.36299 -1.12683,0.99316 -1.39416,1.39417 -0.19214,0.2882 -0.17652,0.73729 -0.46472,0.92944 -0.25779,0.17184 -0.67166,-0.17186 -0.92945,0 -0.2882,0.19213 -0.17651,0.73729 -0.46472,0.92943 -0.25777,0.17185 -0.63552,-0.098 -0.92943,0 -0.53381,0.17794 -0.64476,1.10948 -0.92944,1.39416 -0.10954,0.10954 -0.32617,-0.0693 -0.46472,0 -0.19594,0.098 -0.26878,0.36675 -0.46472,0.46472 -0.13856,0.0693 -0.35518,-0.10954 -0.46472,0 -0.21907,0.21907 0.21907,0.71037 0,0.92944 -0.21907,0.21908 -0.65234,-0.13855 -0.92944,0 -0.19594,0.098 -0.26878,0.36675 -0.46472,0.46472 -0.13855,0.0693 -0.46472,0.15491 -0.46472,0 0,-0.19452 0.56583,0.12121 0.92944,0 3.98752,-1.32918 -2.96212,0.41624 2.3236,-0.46472 4.62985,-0.77164 -2.50988,-0.20907 3.25304,-0.92944 1.07597,-0.13449 2.17959,0.15335 3.25304,0 0.63227,-0.0903 1.22886,-0.35972 1.85887,-0.46472 1.54907,-0.25818 0.38727,0.38726 2.3236,0 0.33966,-0.0679 0.59341,-0.38071 0.92944,-0.46472 0.60113,-0.15028 1.27105,0.19595 1.85889,0 0.20782,-0.0693 0.26877,-0.36675 0.46471,-0.46472 0.13855,-0.0693 0.35519,0.10954 0.46472,0 0.10954,-0.10953 -0.10953,-0.35519 0,-0.46472 0.10954,-0.10953 0.32617,0.0693 0.46472,0 0.19595,-0.098 0.26878,-0.36675 0.46472,-0.46472 0.18426,-0.0921 1.29916,0.095 1.39416,0 0.10954,-0.10953 0,-0.30981 0,-0.46471"
         style="fill:none;fill-rule:evenodd;stroke:#ffffff;stroke-width:0.830019px;stroke-linecap:butt;stroke-linejoin:miter;stroke-opacity:1" />
      <path
         inkscape:connector-curvature="0"
         id="path4222"
         d="m -400.74265,664.83297 c 0.21019,-1.68213 -0.21047,-3.89293 0,-5.57664 0.0792,-0.63376 0.37438,-1.2266 0.46472,-1.85887 0.0657,-0.46005 -0.0657,-0.93412 0,-1.39416 0.0281,-0.19614 0.90141,-3.52162 0.92943,-3.71776 0.0657,-0.46005 -0.0657,-0.93411 0,-1.39416 0.18065,-1.26455 0.74879,-2.45321 0.92944,-3.71776 0.0657,-0.46004 -0.0764,-0.93576 0,-1.39416 0.0805,-0.48319 0.39545,-0.90922 0.46472,-1.39415 0.0876,-0.6134 -0.0876,-1.24549 0,-1.85889 0.0693,-0.48493 0.38419,-0.91096 0.46472,-1.39416 0.18227,-1.09358 -0.21373,-2.6491 0,-3.71775 0.0679,-0.33965 0.38071,-0.5934 0.46472,-0.92944 0.0751,-0.30057 -0.0608,-0.62564 0,-0.92944 0.0961,-0.48035 0.38419,-0.91097 0.46472,-1.39416 0.0764,-0.4584 0,-0.92944 0,-1.39416 0,-0.92944 0,-1.85888 0,-2.78832 0,-0.46472 -0.0657,-0.93411 0,-1.39416 0.0903,-0.63227 0.3855,-1.22511 0.46472,-1.85888 0.15371,-1.22968 -0.15371,-2.48807 0,-3.71776 0.0792,-0.63376 0.3855,-1.22512 0.46472,-1.85888 0.15371,-1.22968 -0.15371,-2.48807 0,-3.71775 0.0792,-0.63377 0.39419,-1.2241 0.46472,-1.85888 0.0855,-0.7698 -0.0855,-1.5538 0,-2.3236 -0.0778,-1.18194 0.76996,-2.13664 0.92944,-3.25304 0.0876,-0.6134 -0.0769,-1.24404 0,-1.85888 0.0792,-0.63377 0.3855,-1.22511 0.46472,-1.85888 0.0769,-0.61484 0,-1.23925 0,-1.85888 0.1549,-0.61963 0.37439,-1.2266 0.46472,-1.85888 0.0657,-0.46004 -0.0764,-0.93576 0,-1.39415 0.16106,-0.96639 0.76838,-1.82194 0.92944,-2.78832 0.0764,-0.4584 -0.0764,-0.93576 0,-1.39417 0.0805,-0.48318 0.38419,-0.91096 0.46472,-1.39416 0.12733,-0.76399 -0.18786,-1.57218 0,-2.32359 0.60327,-2.41309 0.46472,0.49611 0.46472,-1.85888 0,-2.35499 -0.13855,0.55421 0.46472,-1.85888 0.0989,-0.39558 -0.13339,-2.05682 0,-2.3236 0.098,-0.19594 0.36674,-0.26878 0.46472,-0.46472 0.14604,-0.29209 -0.14604,-1.56679 0,-1.85888 0.098,-0.19594 0.36674,-0.26878 0.46472,-0.46472 0.13709,-0.27419 -0.10655,-1.07451 0,-1.39416 0.10954,-0.3286 0.35518,-0.60083 0.46472,-0.92943 0.12468,-0.37406 -0.14848,-1.56192 0,-1.85888 0.098,-0.19594 0.36674,-0.26878 0.46472,-0.46472 0.14738,-0.29478 -0.15095,-2.02171 0,-2.32361 0.098,-0.19594 0.36674,-0.26877 0.46472,-0.46472 0.084,-0.16805 0,-2.00036 0,-2.32359 0,-0.15491 -0.10954,-0.35518 0,-0.46472 0.10953,-0.10954 0.35518,0.10954 0.46472,0 0.0683,-0.0683 -0.0547,-1.39416 0,-1.39416 0.1549,0 0.10953,0.35518 0,0.46472 -0.10954,0.10954 -0.32617,-0.0693 -0.46472,0 -0.19595,0.098 -0.30982,0.30981 -0.46472,0.46472 -0.77453,0.77453 -1.54907,1.54906 -2.3236,2.3236 -1.78426,1.78425 0.0213,0.10016 -2.3236,1.85887 -0.17525,0.13144 -0.28244,0.34321 -0.46472,0.46472 -0.28821,0.19214 -0.65233,0.25689 -0.92944,0.46472 -2.34874,1.76156 0.39086,0.26929 -1.85888,1.39417 -0.30981,0.1549 -0.64123,0.27258 -0.92944,0.46472 -0.36455,0.24303 -0.53755,0.73349 -0.92944,0.92944 -0.13855,0.0693 -0.46472,0.1549 -0.46472,0 0,-0.21908 0.30982,-0.30982 0.46472,-0.46472 0.36299,-0.363 0.99315,-1.12683 1.39416,-1.39416 0.28821,-0.19214 0.64123,-0.27259 0.92944,-0.46472 0.18228,-0.12152 0.30981,-0.30981 0.46472,-0.46473 0.29345,-0.29345 1.1007,-1.1007 1.39416,-1.39416 0.1549,-0.1549 0.25689,-0.39543 0.46472,-0.46472 0.29391,-0.098 0.65233,0.13856 0.92944,0 0.0893,-0.0447 -0.29627,-1.01366 0.46471,-1.39415 0.27711,-0.13856 0.71038,0.21907 0.92945,0 0.21907,-0.21907 -0.27711,-0.79089 0,-0.92944 0.2771,-0.13856 0.61963,0 0.92944,0 0.15491,0 0.32616,-0.0693 0.46472,0 0.19594,0.098 0.28244,0.3432 0.46472,0.46472 0.28821,0.19214 0.64123,0.27258 0.92944,0.46472 0.25403,0.16935 2.21719,2.164 2.32359,2.32359 0.0859,0.1289 -0.10953,0.35519 0,0.46472 1.23926,0 -0.1549,-0.1549 0.46472,0.46472 0.10954,0.10954 0.39545,-0.13855 0.46472,0 0.13856,0.27711 -0.098,0.63553 0,0.92945 0.0693,0.20783 0.30982,0.30981 0.46472,0.46472 0.46472,0.46472 0.84733,1.02959 1.39416,1.39416 0.12889,0.0859 0.39545,-0.13856 0.46473,0 0.13855,0.2771 -0.098,0.63552 0,0.92943 0.57425,1.72277 0.46472,-0.56647 0.46472,0.92944"
         style="fill:none;fill-rule:evenodd;stroke:#ffffff;stroke-width:0.830019px;stroke-linecap:butt;stroke-linejoin:miter;stroke-opacity:1" />
      <path
         inkscape:connector-curvature="0"
         id="path4224"
         d="m -365.88868,570.49486 c 0,1.54907 0,3.09813 0,4.6472 0,0.30981 0.0751,0.62888 0,0.92944 -0.084,0.33604 -0.3807,0.5934 -0.46472,0.92943 -0.11271,0.45085 0,0.92944 0,1.39416 0,0.92945 0,1.85889 0,2.78833 0,2.94322 0,5.88644 0,8.82967 0,0.92944 0,1.85888 0,2.78832 0,0.46472 0.0912,0.93846 0,1.39416 -0.0961,0.48035 -0.36864,0.91381 -0.46472,1.39415 -0.0607,0.30381 0.0608,0.62565 0,0.92944 -0.0961,0.48035 -0.36864,0.91382 -0.46472,1.39417 -0.0607,0.30379 0.0608,0.62563 0,0.92944 -0.0961,0.48034 -0.38418,0.91096 -0.46472,1.39416 -0.0764,0.45839 0.0765,0.93576 0,1.39415 -0.0805,0.4832 -0.38418,0.91097 -0.46471,1.39416 -0.0764,0.4584 0.0657,0.93411 0,1.39416 -0.0903,0.63228 -0.35972,1.22888 -0.46472,1.85888 -0.12734,0.764 0.12733,1.5596 0,2.3236 -0.0805,0.48319 -0.38419,0.91097 -0.46472,1.39416 -0.0764,0.4584 0,0.92944 0,1.39416 -0.15491,0.46472 -0.38419,0.91097 -0.46472,1.39416 -0.21022,1.26132 0.21022,2.92116 0,4.18248 -0.0805,0.48319 -0.36866,0.91381 -0.46472,1.39416 -0.0608,0.30379 0,0.61962 0,0.92944 0,0.46472 0,0.92943 0,1.39415 0,1.70398 0,3.40795 0,5.11193 0,0.61962 0.12151,1.25127 0,1.85887 -0.0961,0.48034 -0.36866,0.91381 -0.46472,1.39416 -0.10066,0.50326 0,2.75626 0,3.25304 0,1.70398 0,3.40795 0,5.11192 0,4.02757 0,8.05514 0,12.08271 0,1.08434 0,2.16869 0,3.25304 0,0.46472 0.0911,0.93846 0,1.39416 -0.0679,0.33965 -0.38071,0.5934 -0.46472,0.92944 -0.0751,0.30056 0,0.61963 0,0.92944 0,0.46472 0,0.92944 0,1.39416 0,1.85887 0,3.71775 0,5.57664 0,1.39415 0,2.78831 0,4.18247 0,0.30981 0,0.61963 0,0.92944 0,0.15491 0.15491,0.46472 0,0.46472 -0.21908,0 -0.28244,-0.3432 -0.46472,-0.46472 -3.18686,-2.12457 2.09716,2.09716 -1.85888,-1.85888 -2.3749,-2.37489 0.64816,1.94856 -1.85888,-1.39416 -0.41566,-0.55421 -0.54516,-1.28246 -0.92944,-1.85887 -0.24304,-0.36456 -0.6864,-0.56489 -0.92944,-0.92944 -1.56512,-2.34768 -0.003,-0.0108 -0.46472,-1.39417 -0.10954,-0.3286 -0.35518,-0.60082 -0.46472,-0.92944 -0.0874,-0.26219 0,-1.08878 0,-1.39416 0,-0.1549 -0.15491,-0.46471 0,-0.46471 0.15491,0 -0.0693,0.32616 0,0.46471 0.098,0.19595 0.39545,0.2569 0.46472,0.46472 0.098,0.29392 -0.13856,0.65234 0,0.92944 0.19594,0.39189 0.70402,0.55374 0.92944,0.92944 0.009,0.0153 0.90535,2.7281 0.92944,2.78833 0.25729,0.64321 0.76142,1.18679 0.92944,1.85887 0.0751,0.30057 -0.098,0.63552 0,0.92944 0.0693,0.20783 0.36675,0.26878 0.46472,0.46472 0.0693,0.13856 0,0.30981 0,0.46472 0.15491,0.15491 0.36675,0.26878 0.46472,0.46472 0.0693,0.13856 -0.10953,0.35518 0,0.46472 0.23236,0.23236 1.1618,-0.23236 1.39416,0 0.10953,0.10954 -0.10954,0.35519 0,0.46472 0.0656,0.0656 1.29883,0.0476 1.39416,0 0.19594,-0.098 0.28244,-0.3432 0.46472,-0.46472 0.57641,-0.38427 1.23925,-0.61963 1.85888,-0.92944 0.30981,-0.15491 0.61962,-0.30981 0.92943,-0.46472 0.30982,-0.15491 0.59341,-0.38071 0.92944,-0.46472 2.11554,0 0.0266,0.21908 1.39416,-0.46472 0.13856,-0.0693 0.35519,0.10954 0.46473,0 0.0211,-0.0211 0,-2.10449 0,-2.32359"
         style="fill:none;fill-rule:evenodd;stroke:#ffffff;stroke-width:0.830019px;stroke-linecap:butt;stroke-linejoin:miter;stroke-opacity:1" />
      <path
         inkscape:connector-curvature="0"
         id="path4226"
         d="m -340.32909,565.38294 c 0.0553,0.94357 2.62706,0.25606 3.25304,0.46472 0.32861,0.10954 0.61963,0.30981 0.92944,0.46472 0.30982,0.15491 0.65233,0.25689 0.92944,0.46472 0.35051,0.26288 0.55373,0.70402 0.92944,0.92944 3.43589,2.06153 -0.73722,-1.42627 2.78832,1.39416 1.44082,1.15265 0.41644,0.9053 2.32359,1.85888 0.43815,0.21907 0.98658,0.193 1.39417,0.46472 0.91139,0.60759 1.4122,1.71601 2.3236,2.3236 0.57641,0.38427 1.25738,0.58573 1.85887,0.92944 0.96987,0.55421 1.85888,1.23925 2.78832,1.85887 0.46472,0.30982 0.8946,0.67967 1.39417,0.92944 0.43813,0.21908 0.95601,0.24566 1.39415,0.46472 0.99912,0.49957 1.83046,1.28417 2.78832,1.85889 0.29702,0.1782 0.63242,0.2865 0.92944,0.46472 0.47893,0.28735 0.92944,0.61962 1.39416,0.92944 0.46472,0.30981 0.95802,0.58053 1.39416,0.92944 0.34213,0.2737 0.58731,0.65573 0.92943,0.92943 0.43615,0.34891 0.92945,0.61963 1.39417,0.92944 1.39094,0.9273 2.82223,1.81671 4.18247,2.78832 0.23805,0.17003 2.70544,2.08892 3.25304,2.3236 3.40607,1.45974 0.33842,-0.71792 3.71776,1.39416 1.81709,1.13568 1.6992,1.65074 3.71776,2.3236 3.91815,1.30605 0.77009,-0.54439 4.6472,1.39416 0.80789,0.40394 1.54906,0.92944 2.3236,1.39415 0.92944,0.30982 1.89642,0.52404 2.78831,0.92944 0.82229,0.37378 1.48496,1.05871 2.32361,1.39417 4.28625,1.7145 0.38133,-0.97577 4.64719,1.39416 0.67706,0.37615 1.18182,1.01801 1.85888,1.39416 1.89155,1.05085 4.71055,1.50579 6.50608,2.78831 0.5348,0.382 0.85936,1.01217 1.39416,1.39416 0.56372,0.40267 1.27141,0.56228 1.85887,0.92944 5.58849,3.4928 -2.31201,-0.81973 4.18249,2.78832 2.28802,1.27113 1.59736,0.70994 4.18247,1.85888 0.63306,0.28136 1.23925,0.61963 1.85888,0.92944 6.16513,3.08257 -1.5335,-0.65721 3.25304,1.39416 0.63675,0.27289 1.20167,0.71037 1.85888,0.92944 0.29392,0.098 0.65234,-0.13855 0.92944,0 0.39188,0.19594 0.56488,0.6864 0.92944,0.92943 0.12889,0.0859 0.30981,0 0.46472,0 0.30981,0.15491 0.64123,0.27259 0.92943,0.46472 0.18228,0.12153 0.28245,0.34321 0.46472,0.46473 0.28821,0.19213 0.65234,0.25688 0.92945,0.46472 0.35051,0.26288 0.53755,0.7335 0.92944,0.92944 0.2771,0.13855 0.64178,-0.11507 0.92944,0 0.81829,0.54553 1.43047,1.03691 2.32359,1.39416 3.20929,1.2837 -0.39943,-0.17284 2.78832,0.46472 0.33966,0.0679 0.60783,0.33607 0.92944,0.46472 0.45482,0.18193 0.93934,0.28278 1.39417,0.46472 0.64321,0.25728 1.18679,0.76141 1.85887,0.92943 0.30056,0.0751 0.62888,-0.0751 0.92944,0 0.33604,0.084 0.60084,0.35519 0.92944,0.46472 0.14696,0.049 0.31776,-0.049 0.46472,0 0.65721,0.21908 1.20167,0.71038 1.85888,0.92944 0.14696,0.049 0.32617,-0.0693 0.46472,0 0.19594,0.098 0.26877,0.36675 0.46472,0.46472 0.18426,0.0921 1.29915,-0.095 1.39415,0 0.10954,0.10954 -0.10953,0.35519 0,0.46472 0.21908,0.21908 0.65234,-0.13855 0.92945,0 1.14851,0.57426 -0.16042,0.46472 0.92944,0.46472 0.15491,0 0.46472,0.15491 0.46472,0 0,-0.21907 -0.30981,-0.30981 -0.46472,-0.46472 -2.24415,-2.24414 0.60759,0.48608 -2.32361,-1.85888 -0.68425,-0.5474 -1.23925,-1.23925 -1.85887,-1.85887 -0.86449,-0.86449 -1.27264,-1.15112 -1.85888,-2.3236 -0.0693,-0.13856 0.0693,-0.32617 0,-0.46472 -0.098,-0.19594 -0.30981,-0.30981 -0.46472,-0.46472 -0.15491,-0.15491 -0.24565,-0.46472 -0.46472,-0.46472 -0.15491,0 -0.10954,0.35518 0,0.46472 0.10954,0.10953 0.31777,-0.049 0.46472,0 0.3286,0.10953 0.64123,0.27258 0.92944,0.46472 1.06763,0.71175 -0.19927,0.26544 0.92944,1.39416 0.24493,0.24493 0.65233,0.25689 0.92944,0.46472 0.35051,0.26288 0.61962,0.61962 0.92944,0.92944 0.30981,0.30981 0.66655,0.57892 0.92943,0.92943 0.20784,0.27711 0.2198,0.68451 0.46473,0.92944 1.82917,1.82918 0.94395,0.0193 2.3236,1.85888 0.20783,0.27711 0.21979,0.68452 0.46472,0.92944 0.24493,0.24493 0.68451,0.2198 0.92944,0.46472 0.24493,0.24493 0.21979,0.68452 0.46472,0.92945 0.10953,0.10953 0.32616,-0.0693 0.46471,0 0.19595,0.098 0.30982,0.30981 0.46472,0.46472 0.15491,0.1549 0.36676,0.26877 0.46472,0.46471 0.13856,0.27711 -0.13855,0.65233 0,0.92944 0.098,0.19595 0.36676,0.26878 0.46472,0.46472 0.0693,0.13856 0,0.30982 0,0.46472 0,0.15491 0.10954,0.35518 0,0.46472 -0.10953,0.10954 -0.30981,0 -0.46472,0 -0.1549,0 -0.30981,0 -0.46472,0 -0.92943,0 -1.85887,0 -2.78831,0 -2.78833,0 -5.57664,0 -8.36496,0 -0.77453,0 -1.54906,0 -2.3236,0 -0.46471,0 -0.92943,0 -1.39416,0 -0.15491,0 -0.32617,0.0693 -0.46472,0 -0.19594,-0.098 -0.26878,-0.36675 -0.46472,-0.46472 -0.13855,-0.0693 -0.30981,0 -0.46472,0 -0.15491,0 -0.30981,0 -0.46472,0"
         style="fill:none;fill-rule:evenodd;stroke:#ffffff;stroke-width:0.830019px;stroke-linecap:butt;stroke-linejoin:miter;stroke-opacity:1" />
      <path
         inkscape:connector-curvature="0"
         id="path4228"
         d="m -196.26596,611.3902 c -1.23925,0 -2.4785,0 -3.71775,0 -0.61964,0 -1.24404,0.0769 -1.85889,0 -0.63376,-0.0792 -1.22511,-0.3855 -1.85888,-0.46472 -0.61483,-0.0769 -1.23925,0 -1.85887,0 -0.61963,0 -1.23925,0 -1.85888,0 -0.46472,0 -0.93576,0.0764 -1.39416,0 -0.48319,-0.0805 -0.91097,-0.38419 -1.39417,-0.46472 -0.45839,-0.0764 -0.93575,0.0764 -1.39415,0 -0.48319,-0.0805 -0.92944,-0.30981 -1.39416,-0.46472 -0.46472,-0.15491 -0.93934,-0.28279 -1.39416,-0.46472 -0.32161,-0.12864 -0.60083,-0.35518 -0.92944,-0.46472 -1.76867,-0.58956 -1.68663,-0.25812 -3.25303,-0.92944 -0.63676,-0.27289 -1.21023,-0.68619 -1.85889,-0.92944 -0.59803,-0.22426 -1.26085,-0.24046 -1.85888,-0.46471 -0.64865,-0.24325 -1.23925,-0.61964 -1.85887,-0.92945 -0.61963,-0.30981 -1.23926,-0.61963 -1.85888,-0.92944 -1.23925,-0.61963 -2.47851,-1.23925 -3.71776,-1.85888 -0.61963,-0.30981 -1.27142,-0.56227 -1.85888,-0.92944 -0.6568,-0.4105 -1.20208,-0.98365 -1.85888,-1.39415 -0.58746,-0.36717 -1.27141,-0.56228 -1.85888,-0.92944 -0.6568,-0.41051 -1.18181,-1.01802 -1.85887,-1.39416 -0.72923,-0.40513 -1.57748,-0.55638 -2.32361,-0.92944 -2.43601,-1.21801 -4.4271,-3.165 -6.9708,-4.18248 -0.90964,-0.36386 -1.92822,-0.46031 -2.78831,-0.92944 -0.87078,-0.47497 -1.45654,-1.37718 -2.3236,-1.85888 -0.55832,-0.31018 -1.23925,-0.30981 -1.85888,-0.46472 -0.77453,-0.30981 -1.59438,-0.52432 -2.3236,-0.92944 -0.67707,-0.37614 -1.16611,-1.04778 -1.85888,-1.39416 -0.57127,-0.28563 -1.26085,-0.24046 -1.85888,-0.46472 -1.29731,-0.48649 -2.42045,-1.37239 -3.71775,-1.85888 -1.33724,-0.50146 -2.84525,-0.42797 -4.18248,-0.92944 -0.52297,-0.19611 -0.8808,-0.70942 -1.39416,-0.92944 -1.17411,-0.50319 -2.5217,-0.48091 -3.71776,-0.92944 -0.64866,-0.24324 -1.22213,-0.65654 -1.85888,-0.92943 -2.62147,-1.12349 -0.10873,0.24967 -3.25304,-0.92944 -6.47794,-2.42924 3.44797,0.6846 -4.18247,-1.85889 -0.60593,-0.20197 -1.26085,-0.24046 -1.85889,-0.46472 -2.04268,-0.766 -1.53704,-0.8783 -3.25303,-1.85888 -0.60149,-0.3437 -1.25739,-0.58572 -1.85888,-0.92943 -0.96987,-0.55422 -1.85888,-1.23926 -2.78832,-1.85888 -0.46472,-0.30981 -0.8946,-0.67966 -1.39416,-0.92944 -0.43815,-0.21908 -1.01165,-0.15871 -1.39416,-0.46472 -0.43614,-0.34891 -0.5345,-0.99923 -0.92944,-1.39416 -0.39493,-0.39494 -0.95803,-0.58053 -1.39416,-0.92944 -0.34213,-0.2737 -0.61962,-0.61963 -0.92944,-0.92944 -0.46472,-0.46472 -0.97342,-0.88928 -1.39416,-1.39416 -0.71511,-0.85814 -1.14376,-1.93018 -1.85887,-2.78832 -0.70124,-0.84147 -1.63934,-1.46827 -2.32361,-2.32359 -0.3489,-0.43614 -0.58053,-0.95803 -0.92944,-1.39416 -0.5474,-0.68427 -1.33311,-1.15785 -1.85887,-1.85889 -0.20783,-0.2771 -0.27258,-0.64123 -0.46472,-0.92944 -0.12153,-0.18227 -0.30982,-0.30981 -0.46472,-0.46472 -0.53024,-0.53024 -1.88973,-1.7451 -2.3236,-2.32359 -0.20783,-0.2771 -0.27259,-0.64123 -0.46472,-0.92944 -0.12152,-0.18228 -0.3432,-0.28244 -0.46472,-0.46472 -1.12539,-1.68808 0.13608,-0.32864 -0.92945,-1.39416 -0.92943,-0.92944 -1.85887,-1.85888 -2.78831,-2.78832 -0.24466,-0.24466 -1.27006,-1.14596 -1.39416,-1.39416 -0.0693,-0.13856 0.0693,-0.32617 0,-0.46472 -0.96703,-1.93405 0.032,0.4968 -0.92944,-0.46472 -0.10954,-0.10954 0.0693,-0.32616 0,-0.46472 -0.19594,-0.39188 -0.73349,-0.53755 -0.92944,-0.92944 -0.0693,-0.13855 0.10954,-0.35518 0,-0.46472 -0.27773,-0.27773 -0.92944,0.50231 -0.92944,-0.46472 0,-0.1549 0.31776,-0.049 0.46472,0 0.32861,0.10954 0.64124,0.27258 0.92944,0.46472 0.85032,0.56688 0.0464,0.5925 1.39416,0.92944 0.30057,0.0751 0.65234,-0.13855 0.92944,0 1.85175,0.92587 0.002,0.92995 1.85888,1.39416 0.30056,0.0751 0.62564,-0.0608 0.92944,0 0.93322,-0.10664 1.51431,0.72712 2.3236,0.92944 0.30056,0.0751 0.62564,-0.0608 0.92944,0 0.48034,0.0961 0.91892,0.34591 1.39416,0.46472 0.15028,0.0376 0.30981,0 0.46472,0 0.77453,0 1.54906,0 2.32359,0 0.61963,0 1.23926,0 1.85888,0 0.15491,0 0.46472,-0.15491 0.46472,0 0,0.1549 -0.32089,0.0575 -0.46472,0 -0.64321,-0.25728 -1.23925,-0.61963 -1.85888,-0.92944 -0.61962,-0.30981 -1.23925,-0.61963 -1.85887,-0.92944 -0.61963,-0.30981 -1.21023,-0.68619 -1.85888,-0.92944 -0.59803,-0.22426 -1.26085,-0.24046 -1.85888,-0.46472 -1.35437,-0.50789 -1.86822,-1.16335 -3.25304,-1.39416 -0.4584,-0.0764 -0.94332,0.11271 -1.39416,0 -0.21253,-0.0531 -0.26878,-0.36675 -0.46472,-0.46472 -0.13855,-0.0693 -0.30981,0 -0.46472,0 -0.15491,0 -0.39545,-0.13855 -0.46472,0 -0.13855,0.27711 0,0.61963 0,0.92944 0,1.39416 0,2.78832 0,4.18248 0,1.54906 0,3.09813 0,4.6472 0,0.48327 -0.0914,2.42276 0,2.78832 0.084,0.33604 0.38071,0.59339 0.46472,0.92943 0.0751,0.30057 -0.0751,0.62888 0,0.92944 0.084,0.33604 0.38071,0.59341 0.46472,0.92944 0.0751,0.30057 -0.0751,0.62888 0,0.92945 0.084,0.33603 0.38071,0.5934 0.46472,0.92944 0.0751,0.30056 0,0.61962 0,0.92944 0,0.1549 -0.0693,0.32616 0,0.46472 0.098,0.19594 0.36675,0.26877 0.46472,0.46471 0.30981,0.61963 -0.46472,0.46472 0.46472,0.46472"
         style="fill:none;fill-rule:evenodd;stroke:#ffffff;stroke-width:0.830019px;stroke-linecap:butt;stroke-linejoin:miter;stroke-opacity:1" />
      <path
         inkscape:connector-curvature="0"
         id="path4230"
         d="m -315.23422,526.34648 c 9.0358,0 -1.12796,0.29391 4.18247,-0.46472 0.61341,-0.0876 1.23926,0 1.85889,0 0.61963,0 1.23925,0 1.85888,0 0.61962,0 1.24403,0.0769 1.85888,0 0.63376,-0.0793 1.22408,-0.39419 1.85887,-0.46472 0.7698,-0.0855 1.55292,0.077 2.3236,0 0.78595,-0.0786 1.54907,-0.30981 2.3236,-0.46471 0.92944,0 1.8627,0.0841 2.78832,0 0.78663,-0.0716 1.54647,-0.32343 2.3236,-0.46472 0.92706,-0.16856 1.85702,-0.32145 2.78832,-0.46473 2.94683,-0.45336 5.88833,-0.90393 8.82968,-1.39416 0.92944,-0.15491 1.86697,-0.26728 2.78831,-0.46472 2.31812,-0.0898 4.30837,-1.35171 6.50608,-1.85888 7.5512,-1.07874 -0.76303,0.30694 6.04135,-1.39415 3.56484,-0.89121 2.20885,-0.045 6.04136,-0.92944 0.95463,-0.22031 1.83786,-0.69183 2.78832,-0.92944 1.82826,-0.45707 3.75853,-0.4336 5.57664,-0.92944 0.8048,-0.2195 1.51879,-0.70995 2.3236,-0.92944 0.90906,-0.24793 1.86435,-0.27993 2.78831,-0.46473 1.25259,-0.25051 2.48952,-0.5785 3.71777,-0.92944 0.47101,-0.13457 0.92314,-0.33014 1.39415,-0.46471 0.61413,-0.17546 1.24476,-0.28926 1.85888,-0.46472 0.47101,-0.13458 0.91893,-0.34591 1.39416,-0.46472 1.4733,-0.36832 2.7513,-0.45238 4.18248,-0.92944 0.79139,-0.2638 1.5188,-0.70995 2.3236,-0.92944 0.90906,-0.24793 1.87926,-0.21679 2.78832,-0.46472 0.8048,-0.21949 1.5188,-0.70995 2.3236,-0.92944 0.90905,-0.24793 1.87926,-0.21679 2.78832,-0.46472 0.8048,-0.21949 1.5322,-0.66564 2.32359,-0.92944 6.73547,-2.24516 0.24005,0.0613 5.57664,-1.39416 0.9452,-0.25778 1.84313,-0.67165 2.78832,-0.92944 8.73161,-2.38134 -4.0051,1.26574 4.6472,-0.46472 0.81799,-0.1636 1.5188,-0.70994 2.3236,-0.92944 1.80174,-0.49138 3.10998,-0.38345 5.11191,-0.92944 6.12221,-2.04073 -0.52475,0.0139 5.57664,-1.39416 11.45396,-2.64322 -4.12295,0.6822 6.04136,-1.85887 0.91413,-0.22853 1.87419,-0.23619 2.78832,-0.46472 7.73621,-1.93406 -1.12194,0.0642 4.64719,-1.85888 0.74934,-0.24979 1.57427,-0.21494 2.32361,-0.46472 0.65721,-0.21908 1.22212,-0.65655 1.85887,-0.92945 0.9005,-0.38592 1.87868,-0.56557 2.78832,-0.92944 0.32161,-0.12863 0.61963,-0.30981 0.92944,-0.46472 0.61962,-0.30981 1.25739,-0.58572 1.85888,-0.92943 3.99547,-2.66365 -1.05972,0.52986 2.78832,-1.39416 0.49956,-0.24978 0.8946,-0.67966 1.39416,-0.92944 0.43814,-0.21908 0.97411,-0.21269 1.39416,-0.46472 2.11553,-2.11554 -0.19249,-0.24565 1.85887,-0.92944 0.20783,-0.0693 0.24566,-0.46472 0.46472,-0.46472 0.15491,0 0.10954,0.35518 0,0.46472 -0.21906,0.21907 -0.65233,-0.13855 -0.92944,0 -2.36485,1.18243 2.13174,-0.24046 -1.39415,0.46472 -3.82096,1.27366 0.97971,-0.16329 -2.78832,0.46472 -0.4832,0.0805 -0.91382,0.36865 -1.39416,0.46472 -0.3038,0.0608 -0.61962,0 -0.92944,0 -1.39416,0 -2.78832,0 -4.18248,0 -0.46472,0 -0.92944,0 -1.39416,0 -0.1549,0 -0.46472,0.15491 -0.46472,0 0,-0.15491 0.30982,0 0.46472,0 0.15491,0 0.30982,0 0.46472,0 0.61963,0 1.24769,0.10187 1.85888,0 0.4832,-0.0805 0.90923,-0.39545 1.39416,-0.46472 0.6134,-0.0876 1.23925,0 1.85888,0 1.23926,0 2.47851,0 3.71776,0 0.61962,0 1.23925,0 1.85888,0 0.61962,0 1.24548,0.0876 1.85887,0 0.48494,-0.0693 0.91097,-0.38419 1.39417,-0.46472 0.45839,-0.0764 0.92944,0 1.39416,0 0.61962,0 1.23925,0 1.85888,0 0.1549,0 0.30981,0 0.46471,0 0.15491,0 0.46472,-0.15491 0.46472,0 0,0.15491 -0.32616,-0.0693 -0.46472,0 -0.19594,0.098 -0.36675,0.26878 -0.46471,0.46472 -0.64883,1.29764 1.94468,-0.76143 -0.92944,1.39416 -0.27711,0.20783 -0.61963,0.30981 -0.92944,0.46472 -1.13635,0.56817 -2.26776,1.0378 -3.25305,1.85887 -4.56791,3.8066 1.33195,-0.86722 -2.32359,2.78833 -0.39493,0.39493 -0.99923,0.5345 -1.39416,0.92944 -1.82918,1.82917 -0.0193,0.94395 -1.85888,2.32359 -2.25077,1.68808 0.0272,-0.49196 -1.39416,0.92944"
         style="fill:none;fill-rule:evenodd;stroke:#ffffff;stroke-width:0.830019px;stroke-linecap:butt;stroke-linejoin:miter;stroke-opacity:1" />
      <path
         inkscape:connector-curvature="0"
         id="path4234"
         d="m -173.02997,462.67987 c -3.41832,0.56972 -1.8742,0.23619 -4.6472,0.92944 -0.61962,0.15491 -1.25295,0.26275 -1.85887,0.46472 -4.71177,1.57059 0.20423,0.33998 -5.11193,1.85888 -1.22824,0.35093 -2.48951,0.57851 -3.71775,0.92944 -0.94202,0.26915 -1.85193,0.64132 -2.78832,0.92944 -1.07787,0.33165 -2.1687,0.61962 -3.25304,0.92944 -1.08435,0.30981 -2.15418,0.67586 -3.25304,0.92944 -0.91813,0.21187 -1.87926,0.2168 -2.78831,0.46472 -0.80481,0.21949 -1.54907,0.61963 -2.32361,0.92944 -1.54906,0.61963 -3.06441,1.33129 -4.64719,1.85888 -0.60592,0.20198 -1.26085,0.24045 -1.85888,0.46472 -1.29731,0.48649 -2.40333,1.42073 -3.71776,1.85888 -0.74933,0.24977 -1.57426,0.21494 -2.3236,0.46471 -0.65722,0.21908 -1.23925,0.61963 -1.85888,0.92944 -0.61962,0.30982 -1.23925,0.61963 -1.85888,0.92944 -0.61963,0.30981 -1.20166,0.71037 -1.85888,0.92945 -0.74933,0.24978 -1.57425,0.21493 -2.3236,0.46472 -0.6572,0.21907 -1.20166,0.71036 -1.85887,0.92944 -0.74934,0.24977 -1.57427,0.21494 -2.3236,0.46472 -0.65722,0.21906 -1.23926,0.61962 -1.85888,0.92944 -0.77454,0.30981 -1.52458,0.68972 -2.3236,0.92943 -1.51312,0.45394 -3.14852,0.42989 -4.6472,0.92944 -0.65721,0.21908 -1.22583,0.64808 -1.85888,0.92944 -0.7623,0.3388 -1.53221,0.66564 -2.3236,0.92944 -0.60592,0.20198 -1.23925,0.30981 -1.85888,0.46472 -0.61962,0.15491 -1.2266,0.3744 -1.85887,0.46472 -0.46006,0.0657 -0.94733,-0.12767 -1.39416,0 -0.66612,0.19032 -1.21023,0.68619 -1.85889,0.92944 -0.59802,0.22426 -1.24475,0.28926 -1.85887,0.46472 -4.66685,1.33339 2.55812,-0.52335 -3.25304,0.92944 -0.61962,0.15491 -1.23925,0.30982 -1.85888,0.46472 -0.61962,0.15491 -1.22511,0.3855 -1.85888,0.46472 -0.61484,0.0769 -1.24304,-0.0684 -1.85888,0 -0.78504,0.0872 -1.53856,0.37749 -2.3236,0.46472 -0.61584,0.0684 -1.24404,-0.0769 -1.85887,0 -0.63377,0.0792 -1.22512,0.3855 -1.85888,0.46472 -1.22969,0.15371 -2.48609,-0.13685 -3.71776,0 -0.78504,0.0872 -1.53856,0.37749 -2.3236,0.46472 -0.61584,0.0684 -1.24404,-0.0769 -1.85888,0 -0.63377,0.0792 -1.23539,0.32616 -1.85888,0.46472 -2.31266,0.51392 -4.65813,0.88023 -6.97079,1.39416 -1.24698,0.2771 -2.45321,0.74879 -3.71777,0.92944 -0.46004,0.0657 -0.9341,-0.0657 -1.39416,0 -0.63227,0.0903 -1.22511,0.3855 -1.85887,0.46472 -0.61485,0.0769 -1.24548,-0.0876 -1.85888,0 -0.48494,0.0693 -0.92944,0.30981 -1.39416,0.46472 -0.61962,0.1549 -1.22511,0.3855 -1.85888,0.46471 -0.61484,0.0769 -1.24404,-0.0769 -1.85888,0 -1.18194,-0.0778 -2.13664,0.76996 -3.25304,0.92944 -0.6134,0.0876 -1.24548,-0.0876 -1.85887,0 -0.48494,0.0693 -0.92316,0.33015 -1.39417,0.46472 -0.61411,0.17547 -1.24476,0.28926 -1.85888,0.46473 -0.47101,0.13457 -0.91096,0.38418 -1.39416,0.46472 -0.45839,0.0764 -0.94731,-0.12767 -1.39415,0 -0.66611,0.19031 -1.19277,0.73911 -1.85888,0.92944 -0.44684,0.12766 -0.93411,-0.0657 -1.39416,0 -0.63228,0.0903 -1.23926,0.30981 -1.85889,0.46472 -0.61962,0.1549 -1.26084,0.24045 -1.85887,0.46472 -0.64865,0.24324 -1.1868,0.76141 -1.85888,0.92944 -0.60112,0.15028 -1.24548,-0.0876 -1.85888,0 -0.48494,0.0693 -0.92944,0.30981 -1.39416,0.46471 -0.46471,0.15491 -0.93934,0.28279 -1.39415,0.46472 -0.32161,0.12865 -0.60784,0.33608 -0.92945,0.46472 -4.678,1.8712 0.98669,-0.36285 -2.3236,0.46472 -0.33604,0.084 -0.59339,0.38072 -0.92944,0.46472 -0.30056,0.0751 -0.62887,-0.0751 -0.92943,0 -0.33605,0.084 -0.61963,0.30982 -0.92944,0.46472 -0.46472,0.15491 -0.91382,0.36865 -1.39416,0.46472 -0.3038,0.0608 -0.64179,-0.11506 -0.92944,0 -0.51858,0.20743 -0.87559,0.72201 -1.39417,0.92944 -0.28765,0.11507 -0.61962,0 -0.92943,0 -0.46472,0 -0.92944,0 -1.39416,0 -1.23925,0 0.1549,-0.15491 -0.46472,0.46472 -0.10954,0.10954 -0.60328,0.0693 -0.46472,0 4.44277,-2.22138 -1.30721,1.32895 2.3236,-1.39416 0.27711,-0.20783 0.61962,-0.30981 0.92943,-0.46472 0.30982,-0.1549 0.60784,-0.33607 0.92945,-0.46472 0.45482,-0.18192 0.95602,-0.24564 1.39416,-0.46472 0.19594,-0.098 0.28244,-0.3432 0.46472,-0.46472 0.28821,-0.19214 0.64123,-0.27257 0.92944,-0.46472 0.18228,-0.12152 0.30981,-0.30981 0.46472,-0.46472 0.30981,-0.1549 0.64123,-0.27258 0.92943,-0.46471 0.36456,-0.24304 0.53756,-0.7335 0.92944,-0.92944 0.13856,-0.0693 0.30982,0 0.46472,0 0.15491,-0.15491 0.26878,-0.36676 0.46472,-0.46472 0.13856,-0.0693 0.35519,0.10953 0.46472,0 0.24493,-0.24493 0.27259,-0.64123 0.46472,-0.92944 0.12152,-0.18228 0.30981,-0.30981 0.46472,-0.46472 0.15491,-0.15491 0.28245,-0.34321 0.46472,-0.46472 0.28821,-0.19214 0.64124,-0.27259 0.92945,-0.46473 0.54683,-0.36455 0.86838,-0.99982 1.39415,-1.39416 0.27711,-0.20782 0.68451,-0.21978 0.92944,-0.46471 0.0298,-0.0298 0.87173,-1.77232 0.92944,-1.85888 0.28203,-0.42305 1.18821,-0.98226 1.39416,-1.39416 0.0693,-0.13856 -0.10954,-0.35518 0,-0.46472 0.10954,-0.10954 0.35518,-0.10954 0.46472,0 0.10954,0.10954 0.10954,0.35518 0,0.46472 -0.24493,0.24493 -0.72161,0.18762 -0.92944,0.46472 -0.29392,0.39188 -0.21269,0.97411 -0.46472,1.39416 -0.22542,0.37571 -0.61962,0.61962 -0.92944,0.92944 -0.30981,0.30981 -0.61962,0.61962 -0.92944,0.92943 -0.30981,0.30982 -0.61962,0.61963 -0.92943,0.92944 -0.30982,0.30982 -0.66656,0.57893 -0.92944,0.92945 -0.20784,0.2771 -0.25689,0.65233 -0.46473,0.92944 -0.39433,0.52577 -1.0296,0.84732 -1.39416,1.39416 -0.28301,0.42451 -0.39667,1.12777 -0.92944,1.39415 -0.13854,0.0693 -0.32616,-0.0693 -0.46472,0 -0.39188,0.19595 -0.53755,0.7335 -0.92944,0.92944 -0.13855,0.0693 -0.32616,-0.0693 -0.46472,0 -0.19594,0.098 -0.28243,0.34321 -0.46471,0.46472 -0.28821,0.19214 -0.64124,0.27258 -0.92944,0.46472 -2.12895,1.4193 1.97533,-0.7553 -1.39416,0.92944 -0.61963,0.30981 -1.23925,0.61963 -1.85889,0.92944 -0.30981,0.15491 -0.64123,0.27259 -0.92944,0.46472 -0.35338,0.23559 -0.92943,1.21361 -0.92943,0.46472 0,-0.15491 0.30981,0 0.46472,0 0.1549,0 0.30981,0 0.46471,0 0.61963,0 1.23926,0 1.85889,0 4.44749,0 -1.03915,0.20783 2.3236,-0.46472 0.45569,-0.0911 0.93846,0.0911 1.39415,0 0.33966,-0.0679 0.5934,-0.38071 0.92944,-0.46472 0.30057,-0.0751 0.61963,0 0.92944,0 0.30982,0 0.61963,0 0.92944,0 1.23925,0 2.47851,0 3.71776,0 0.46472,0 0.95329,0.14696 1.39416,0 0.20783,-0.0693 0.26878,-0.36674 0.46472,-0.46472 0.16806,-0.084 2.00037,0 2.3236,0 0.1549,0 0.30981,0 0.46472,0 0.1549,0 0.35519,-0.10953 0.46472,0 0.61962,0.61963 -0.77454,0.46472 0.46472,0.46472"
         style="fill:none;fill-rule:evenodd;stroke:#ffffff;stroke-width:0.830019px;stroke-linecap:butt;stroke-linejoin:miter;stroke-opacity:1" />
      <path
         inkscape:connector-curvature="0"
         id="path4236"
         d="m -434.6672,506.82825 c -1.39416,-0.46472 -2.78832,-0.92943 -4.18248,-1.39416 -0.46472,-0.15491 -0.91096,-0.38418 -1.39416,-0.46472 -0.45839,-0.0764 -0.93846,0.0911 -1.39416,0 -0.67931,-0.13586 -1.1868,-0.76142 -1.85888,-0.92944 -0.60112,-0.15028 -1.27105,0.19594 -1.85887,0 -0.20783,-0.0693 -0.25689,-0.39544 -0.46472,-0.46472 -0.29392,-0.098 -0.62888,0.0751 -0.92944,0 -2.15749,-1.07874 0.26749,-0.0394 -1.85889,-0.46472 -0.96069,-0.19213 -1.84629,-0.66029 -2.78831,-0.92944 -1.22825,-0.35092 -2.47851,-0.61962 -3.71776,-0.92944 -1.23925,-0.30981 -2.47851,-0.61962 -3.71776,-0.92944 -0.61963,-0.1549 -1.26085,-0.24045 -1.85888,-0.46471 -0.64865,-0.24325 -1.22582,-0.64808 -1.85888,-0.92944 -0.76229,-0.33881 -1.56129,-0.59064 -2.32359,-0.92944 -2.22848,-0.99044 -1.83631,-1.02018 -4.18248,-2.32361 -1.21117,-0.67287 -2.47851,-1.23925 -3.71776,-1.85887 -1.05487,-0.52744 -2.33344,-1.07065 -3.25304,-1.85888 -0.66532,-0.57028 -1.19941,-1.28184 -1.85888,-1.85888 -1.16579,-1.02007 -2.55197,-1.76825 -3.71776,-2.78832 -0.65947,-0.57703 -1.19941,-1.28184 -1.85887,-1.85888 -1.85928,-1.62686 -2.10388,-1.17805 -3.71777,-3.25304 -0.55454,-0.71298 -0.8522,-1.601 -1.39415,-2.32359 -0.39433,-0.52578 -0.97343,-0.88928 -1.39416,-1.39416 -0.35756,-0.42907 -0.61963,-0.92945 -0.92944,-1.39417 -0.30981,-0.46472 -0.70943,-0.88079 -0.92944,-1.39416 -0.80284,-1.87327 -0.2285,-3.22214 -0.46472,-5.11191 -0.0793,-0.63377 -0.3855,-1.22511 -0.46472,-1.85888 -0.0769,-0.61484 0,-1.23926 0,-1.85888 0,-0.61963 0,-1.23925 0,-1.85888 0,-2.78831 0,-5.57664 0,-8.36496 0,-2.01378 0,-4.02756 0,-6.04136 0,-0.77453 0,-1.54906 0,-2.32359 0,-0.46472 -0.0657,-0.93411 0,-1.39416 0.0903,-0.63228 0.3855,-1.22512 0.46472,-1.85888 0.0769,-0.61484 0,-1.23925 0,-1.85887 0.15491,-0.61963 0.37439,-1.22661 0.46472,-1.85889 0.0657,-0.46005 -0.0657,-0.9341 0,-1.39416 0.0903,-0.63227 0.37439,-1.2266 0.46472,-1.85888 0.0657,-0.46004 -0.14696,-0.95328 0,-1.39415 0.17662,-0.52986 0.67966,-0.89461 0.92944,-1.39416 0.21907,-0.43814 0.28279,-0.93934 0.46472,-1.39416 0.12864,-0.32161 0.39679,-0.58979 0.46472,-0.92944 0.0911,-0.4557 -0.1726,-0.96268 0,-1.39417 0.16272,-0.4068 0.70401,-0.55373 0.92944,-0.92943 0.50406,-0.8401 0.49129,-1.91204 0.92943,-2.78832 0.098,-0.19594 0.33328,-0.28946 0.46472,-0.46472 0.33512,-0.44682 0.58054,-0.95802 0.92944,-1.39416 0.54742,-0.68426 1.31147,-1.17462 1.85888,-1.85887 0.34892,-0.43614 0.58054,-0.95804 0.92945,-1.39417 0.5474,-0.68426 1.23925,-1.23925 1.85887,-1.85888 0.46472,-0.46472 0.88928,-0.97342 1.39416,-1.39416 0.42907,-0.35755 0.99923,-0.5345 1.39416,-0.92944 0.39494,-0.39493 0.53451,-0.99922 0.92944,-1.39415 0.78987,-0.78987 1.99844,-1.06901 2.78832,-1.85888 0.39493,-0.39494 0.5345,-0.99923 0.92944,-1.39417 0.78987,-0.78987 1.93018,-1.14375 2.78832,-1.85887 0.50488,-0.42074 0.84732,-1.0296 1.39416,-1.39416 0.40759,-0.27173 0.92944,-0.30982 1.39415,-0.46472 0.61963,-0.30981 1.29516,-0.52678 1.85888,-0.92944 0.5348,-0.382 0.88928,-0.97342 1.39417,-1.39416 0.42907,-0.35756 0.95802,-0.58053 1.39416,-0.92944 0.34212,-0.2737 0.53755,-0.73349 0.92943,-0.92944 0.57127,-0.28563 1.26085,-0.24046 1.85888,-0.46472 1.85791,-0.69671 3.25402,-2.0916 5.11192,-2.78832 0.59803,-0.22426 1.26085,-0.24046 1.85888,-0.46472 0.64865,-0.24324 1.22213,-0.65654 1.85888,-0.92944 1.6217,-0.69501 3.42559,-0.91235 5.11192,-1.39416 4.66685,-1.33338 -2.55812,0.52336 3.25303,-0.92943 0.61963,-0.15491 1.22661,-0.3744 1.85888,-0.46472 0.9201,-0.13145 1.87153,0.15279 2.78832,0 0.48319,-0.0805 0.91097,-0.38419 1.39416,-0.46472 0.4584,-0.0764 0.92944,0 1.39416,0 0.46472,0 0.92944,0 1.39416,0 0.61963,0 1.23925,0 1.85888,0 0.61962,0 1.24404,-0.0769 1.85888,0 0.63376,0.0792 1.2266,0.37439 1.85887,0.46472 1.36628,0.19518 2.81621,-0.19519 4.18249,0 1.17671,-0.044 2.14064,0.74403 3.25303,0.92943 0.4584,0.0764 0.93411,-0.0657 1.39416,0 2.35649,0.33664 1.19999,0.29411 2.78832,0.92944 0.90965,0.36386 1.91204,0.4913 2.78832,0.92944 0.49955,0.24978 0.8946,0.67966 1.39416,0.92944 0.43814,0.21908 0.92944,0.30981 1.39416,0.46472 0.92943,0.30981 1.85888,0.61963 2.78832,0.92944 0.46472,0.15491 0.95602,0.24565 1.39416,0.46472 0.99912,0.49956 1.7892,1.35932 2.78831,1.85888 0.87629,0.43815 1.88782,0.54351 2.78832,0.92944 6.5492,2.8068 -1.34954,-0.62384 2.78832,1.85888 0.42005,0.25203 0.95602,0.24564 1.39416,0.46472 0.49956,0.24978 0.91523,0.64208 1.39416,0.92944 0.29702,0.17821 0.65234,0.25689 0.92944,0.46472 0.70103,0.52576 1.15785,1.33311 1.85888,1.85887 0.55421,0.41566 1.36902,0.43959 1.85888,0.92944 0.24492,0.24493 0.25689,0.65234 0.46472,0.92945 0.26289,0.35051 0.61963,0.61963 0.92944,0.92944 0.61963,0.61963 1.17461,1.31146 1.85888,1.85888 0.43613,0.3489 0.95802,0.58053 1.39416,0.92944 0.34213,0.2737 0.57893,0.66655 0.92943,0.92943 0.27711,0.20783 0.65234,0.2569 0.92944,0.46472 0.35052,0.26289 0.61963,0.61963 0.92944,0.92944 0.30981,0.30982 0.70402,0.55374 0.92944,0.92944 2.26722,3.7787 -0.95145,-0.49774 0.92945,2.32361 0.12151,0.18227 0.34319,0.28243 0.46472,0.46472 0.57195,0.85794 0.82219,1.93036 1.39416,2.78831 0.12151,0.18228 0.36674,0.26878 0.46471,0.46472 0.21907,0.43814 0.28279,0.93934 0.46472,1.39416 0.37994,0.94984 0.93648,1.87295 1.39416,2.78831 0.15491,0.30982 0.38071,0.59341 0.46472,0.92944 0.0751,0.30057 -0.0751,0.62888 0,0.92945 0.084,0.33603 0.38071,0.5934 0.46472,0.92944 0.0751,0.30056 0,0.61963 0,0.92944 0.15491,0.30981 0.35518,0.60083 0.46472,0.92944 0.049,0.14695 0,0.30981 0,0.46472 0,0.30981 0,0.61962 0,0.92943 0,0.30982 -0.0751,0.62889 0,0.92944 0.084,0.33604 0.35518,0.60084 0.46472,0.92944 0.14843,0.44531 -0.1435,1.89308 0,2.32361 0.0693,0.20783 0.39545,0.25688 0.46472,0.46472 0.19594,0.58782 -0.15028,1.25775 0,1.85887 0.084,0.33605 0.38071,0.5934 0.46472,0.92944 0.18786,0.75141 -0.1519,1.56411 0,2.3236 0.0679,0.33965 0.39679,0.58979 0.46472,0.92944 0.21833,1.09161 -0.21832,3.09086 0,4.18248 0.0679,0.33965 0.39679,0.58978 0.46472,0.92944 0,3.54518 -0.20783,-0.3666 0.46472,2.3236 0.0751,0.30056 0,0.61962 0,0.92943 0,0.46472 0,0.92944 0,1.39416 0,0.30982 -0.0751,0.62888 0,0.92944 0.084,0.33604 0.38071,0.59341 0.46472,0.92944 0.0751,0.30057 0,0.61963 0,0.92945 0,0.92944 0,1.85887 0,2.78831 0,2.94323 0,5.88646 0,8.82968 0,0.61962 0.12152,1.25129 0,1.85888 -0.0961,0.48035 -0.36865,0.91381 -0.46472,1.39415 -0.0608,0.3038 0.0751,0.62889 0,0.92944 -0.084,0.33604 -0.38071,0.59341 -0.46472,0.92944 -0.0751,0.30057 0.0751,0.62888 0,0.92945 -0.084,0.33603 -0.35519,0.60082 -0.46472,0.92944 -0.12983,0.38948 0.15399,1.5509 0,1.85888 -0.098,0.19594 -0.36675,0.26877 -0.46472,0.46471 -0.084,0.16806 0,2.00038 0,2.3236 0,0.15491 0.10954,0.35518 0,0.46472 -0.10953,0.10954 -0.30981,0 -0.46472,0 -0.15491,0 -0.35518,0.10954 -0.46472,0 -0.10954,-0.10954 0.0693,-0.32616 0,-0.46472 -0.19594,-0.39188 -0.6864,-0.56488 -0.92944,-0.92944 -0.19214,-0.28821 -0.27258,-0.64123 -0.46472,-0.92944 -0.12151,-0.18228 -0.36674,-0.26877 -0.46472,-0.46472 -0.0693,-0.13855 0.0693,-0.32616 0,-0.46471 -0.19594,-0.39189 -0.73349,-0.53756 -0.92944,-0.92944 -0.0693,-0.13856 0.0693,-0.32618 0,-0.46472 -0.098,-0.19595 -0.36675,-0.26878 -0.46472,-0.46472 -0.13855,-0.27711 0.21907,-0.71037 0,-0.92944 -0.61962,-0.61964 -0.46472,0.77453 -0.46472,-0.46473 0,-0.15491 0,-0.30981 0,-0.46472 0,-0.1549 0.10954,-0.35518 0,-0.46472 -0.61962,-0.61962 -0.46471,0.77453 -0.46471,-0.46472 0,-0.1549 -0.15491,-0.46472 0,-0.46472 0.1549,0 -0.0693,0.32618 0,0.46472 0.098,0.19595 0.26877,0.36676 0.46471,0.46472 0.13856,0.0693 0.32617,-0.0693 0.46472,0 0.19595,0.098 0.30982,0.30982 0.46472,0.46472 0.15491,0.15491 0.3432,0.28245 0.46472,0.46472 0.19214,0.28821 0.27258,0.64124 0.46472,0.92945 0.26734,0.40101 1.03118,1.03116 1.39416,1.39416 0.15491,0.1549 0.30981,0.30981 0.46472,0.46472 0.15491,0.1549 0.26878,0.36674 0.46472,0.46472 0.13855,0.0693 0.30981,0 0.46472,0 0.1549,0.1549 0.26877,0.36674 0.46472,0.46471 0.13855,0.0693 0.35519,-0.10953 0.46472,0 0.96152,0.96152 -1.46934,-0.0376 0.46472,0.92944 0.13855,0.0693 0.35519,-0.10953 0.46472,0 0.21907,0.21907 -0.21907,0.71037 0,0.92944 0.10953,0.10954 0.35519,-0.10954 0.46472,0 0.21907,0.21908 -0.21907,0.71037 0,0.92944 0.10953,0.10954 0.35518,-0.10954 0.46472,0 0.10953,0.10954 -0.1549,0.46472 0,0.46472 0.21907,0 0.30982,-0.30981 0.46472,-0.46472 0.46472,-0.46472 0.92944,-0.92944 1.39416,-1.39416 0.15491,-0.1549 0.25689,-0.39544 0.46472,-0.46472 0.29391,-0.098 0.65234,0.13856 0.92944,0 0.39188,-0.19594 0.57892,-0.66655 0.92944,-0.92944 0.55421,-0.41565 1.28246,-0.54516 1.85887,-0.92943 0.18228,-0.12153 0.34321,-0.28245 0.46472,-0.46472 0.19214,-0.28821 0.17652,-0.73731 0.46472,-0.92944 0.25779,-0.17186 0.63553,0.098 0.92944,0 0.20784,-0.0693 0.28245,-0.34321 0.46473,-0.46472 0.2882,-0.19214 0.64123,-0.27259 0.92944,-0.46472 0.18227,-0.12152 0.28244,-0.34321 0.46472,-0.46473 0.2882,-0.19213 0.64123,-0.27258 0.92944,-0.46472 0.18228,-0.12151 0.26877,-0.36674 0.46472,-0.46472 0.13855,-0.0693 0.31776,0.049 0.46471,0 0.97592,-0.3253 1.81241,-1.06885 2.78832,-1.39416 0.14696,-0.049 0.32617,0.0693 0.46472,0 0.77476,-0.38737 0.20998,-0.92943 1.39416,-0.92943"
         style="fill:none;fill-rule:evenodd;stroke:#ffffff;stroke-width:0.830019px;stroke-linecap:butt;stroke-linejoin:miter;stroke-opacity:1" />
    </g>
    <g
       id="g3669"
       style="fill:#ffffff">
      <text
         sodipodi:linespacing="149%"
         id="text4196"
         y="525.41705"
         x="-365.42395"
         style="font-style:normal;font-weight:normal;font-size:14.52533245px;line-height:149.00000095%;font-family:sans-serif;text-align:center;letter-spacing:0px;word-spacing:0px;text-anchor:middle;fill:#ffffff;fill-opacity:1;stroke:none;stroke-width:1px;stroke-linecap:butt;stroke-linejoin:miter;stroke-opacity:1"
         xml:space="preserve"><tspan
           y="525.41705"
           x="-365.42395"
           id="tspan4198"
           sodipodi:role="line">data</tspan><tspan
           id="tspan4200"
           y="551.49207"
           x="-365.42395"
           sodipodi:role="line">model</tspan></text>
      <text
         sodipodi:linespacing="316.00001%"
         id="text4238"
         y="437.58499"
         x="-279.9155"
         style="font-style:normal;font-weight:normal;font-size:14.52533245px;line-height:316.00000858%;font-family:sans-serif;text-align:center;letter-spacing:0px;word-spacing:0px;text-anchor:middle;fill:#ffffff;fill-opacity:1;stroke:none;stroke-width:1px;stroke-linecap:butt;stroke-linejoin:miter;stroke-opacity:1"
         xml:space="preserve"><tspan
           y="437.58499"
           x="-279.9155"
           id="tspan4240"
           sodipodi:role="line">pandoctopus</tspan></text>
      <text
         sodipodi:linespacing="316.00001%"
         id="text4242"
         y="428.75531"
         x="-463.47983"
         style="font-style:normal;font-weight:normal;font-size:10.37523746px;line-height:316.00000858%;font-family:sans-serif;text-align:center;letter-spacing:0px;word-spacing:0px;text-anchor:middle;fill:#ffffff;fill-opacity:1;stroke:none;stroke-width:1px;stroke-linecap:butt;stroke-linejoin:miter;stroke-opacity:1"
         xml:space="preserve"><tspan
           y="428.75531"
           x="-463.47983"
           id="tspan4244"
           sodipodi:role="line">filters</tspan></text>
      <text
         sodipodi:linespacing="316.00001%"
         id="text4246"
         y="522.62872"
         x="-197.1954"
         style="font-style:normal;font-weight:normal;font-size:10.37523746px;line-height:316.00000858%;font-family:sans-serif;text-align:center;letter-spacing:0px;word-spacing:0px;text-anchor:middle;fill:#ffffff;fill-opacity:1;stroke:none;stroke-width:1px;stroke-linecap:butt;stroke-linejoin:miter;stroke-opacity:1"
         xml:space="preserve"><tspan
           y="522.62872"
           x="-197.1954"
           id="tspan4248"
           sodipodi:role="line">.rst</tspan></text>
      <text
         sodipodi:linespacing="316.00001%"
         id="text4250"
         y="624.40234"
         x="-281.30966"
         style="font-style:normal;font-weight:normal;font-size:10.37523746px;line-height:316.00000858%;font-family:sans-serif;text-align:center;letter-spacing:0px;word-spacing:0px;text-anchor:middle;fill:#ffffff;fill-opacity:1;stroke:none;stroke-width:1px;stroke-linecap:butt;stroke-linejoin:miter;stroke-opacity:1"
         xml:space="preserve"><tspan
           y="624.40234"
           x="-281.30966"
           id="tspan4252"
           sodipodi:role="line">.docx</tspan></text>
      <text
         sodipodi:linespacing="316.00001%"
         id="text4254"
         y="661.11517"
         x="-437.92023"
         style="font-style:normal;font-weight:normal;font-size:10.37523746px;line-height:316.00000858%;font-family:sans-serif;text-align:center;letter-spacing:0px;word-spacing:0px;text-anchor:middle;fill:#ffffff;fill-opacity:1;stroke:none;stroke-width:1px;stroke-linecap:butt;stroke-linejoin:miter;stroke-opacity:1"
         xml:space="preserve"><tspan
           y="661.11517"
           x="-437.92023"
           id="tspan4256"
           sodipodi:role="line">.odt</tspan></text>
      <text
         sodipodi:linespacing="316.00001%"
         id="text4258"
         y="596.05444"
         x="-537.83502"
         style="color:#000000;font-style:normal;font-variant:normal;font-weight:normal;font-stretch:normal;font-size:10.37523746px;line-height:316.00000858%;font-family:sans-serif;text-indent:0;text-align:center;text-decoration:none;text-decoration-line:none;text-decoration-style:solid;text-decoration-color:#000000;letter-spacing:0px;word-spacing:0px;text-transform:none;direction:ltr;block-progression:tb;writing-mode:lr-tb;baseline-shift:baseline;text-anchor:middle;white-space:normal;clip-rule:nonzero;display:inline;overflow:visible;visibility:visible;opacity:1;isolation:auto;mix-blend-mode:normal;color-interpolation:sRGB;color-interpolation-filters:linearRGB;solid-color:#000000;solid-opacity:1;fill:#ffffff;fill-opacity:1;fill-rule:nonzero;stroke:none;stroke-width:1px;stroke-linecap:butt;stroke-linejoin:miter;stroke-miterlimit:4;stroke-dasharray:none;stroke-dashoffset:0;stroke-opacity:1;color-rendering:auto;image-rendering:auto;shape-rendering:auto;text-rendering:auto;enable-background:accumulate"
         xml:space="preserve"><tspan
           y="596.05444"
           x="-537.83502"
           id="tspan4260"
           sodipodi:role="line">.md</tspan></text>
    </g>
  </g>
</svg>
