<?xml version="1.0" encoding="UTF-8" standalone="no"?>
<!-- Created with Inkscape (http://www.inkscape.org/) -->

<svg
   xmlns:dc="http://purl.org/dc/elements/1.1/"
   xmlns:cc="http://creativecommons.org/ns#"
   xmlns:rdf="http://www.w3.org/1999/02/22-rdf-syntax-ns#"
   xmlns:svg="http://www.w3.org/2000/svg"
   xmlns="http://www.w3.org/2000/svg"
   xmlns:xlink="http://www.w3.org/1999/xlink"
   xmlns:sodipodi="http://sodipodi.sourceforge.net/DTD/sodipodi-0.dtd"
   xmlns:inkscape="http://www.inkscape.org/namespaces/inkscape"
   width="148.97296mm"
   height="97.810623mm"
   viewBox="0 0 527.85687 346.57308"
   id="svg2"
   version="1.1"
   inkscape:version="0.91 r13725"
   sodipodi:docname="specification.svg"
   inkscape:export-filename="/home/francesco/rotterdam/specification.svg.png"
   inkscape:export-xdpi="90"
   inkscape:export-ydpi="90">
  <defs
     id="defs4">
    <inkscape:path-effect
       effect="spiro"
       id="path-effect3358"
       is_visible="true" />
    <linearGradient
       inkscape:collect="always"
       xlink:href="#linearGradient4250"
       id="linearGradient5048"
       gradientUnits="userSpaceOnUse"
       x1="31.913761"
       y1="1125.1479"
       x2="309.05954"
       y2="1000.8522" />
    <linearGradient
       inkscape:collect="always"
       id="linearGradient4250">
      <stop
         style="stop-color:#55ffdd;stop-opacity:1;"
         offset="0"
         id="stop4252" />
      <stop
         style="stop-color:#55ffdd;stop-opacity:0;"
         offset="1"
         id="stop4254" />
    </linearGradient>
    <linearGradient
       inkscape:collect="always"
       xlink:href="#linearGradient4250"
       id="linearGradient3534"
       gradientUnits="userSpaceOnUse"
       gradientTransform="translate(15.748079,-1.3996874)"
       x1="31.913761"
       y1="1125.1479"
       x2="309.05954"
       y2="1000.8522" />
  </defs>
  <sodipodi:namedview
     id="base"
     pagecolor="#222222"
     bordercolor="#666666"
     borderopacity="1.0"
     inkscape:pageopacity="1"
     inkscape:pageshadow="2"
     inkscape:zoom="1.109817"
     inkscape:cx="448.93542"
     inkscape:cy="219.03368"
     inkscape:document-units="px"
     inkscape:current-layer="layer1"
     showgrid="false"
     showborder="true"
     inkscape:window-width="1842"
     inkscape:window-height="961"
     inkscape:window-x="39"
     inkscape:window-y="59"
     inkscape:window-maximized="0"
     inkscape:snap-page="true"
     fit-margin-top="0"
     fit-margin-left="0"
     fit-margin-right="0"
     fit-margin-bottom="0" />
  <metadata
     id="metadata7">
    <rdf:RDF>
      <cc:Work
         rdf:about="">
        <dc:format>image/svg+xml</dc:format>
        <dc:type
           rdf:resource="http://purl.org/dc/dcmitype/StillImage" />
        <dc:title></dc:title>
      </cc:Work>
    </rdf:RDF>
  </metadata>
  <g
     inkscape:label="Layer 1"
     inkscape:groupmode="layer"
     id="layer1"
     transform="translate(-191.9543,-787.8139)">
    <g
       id="g3518"
       transform="matrix(0.73741179,0,0,0.73741179,95.635456,249.21996)">
      <use
         height="100%"
         width="100%"
         transform="translate(261.6804,-3.3749901e-6)"
         id="use3396"
         xlink:href="#rect3382"
         y="0"
         x="0" />
      <use
         height="100%"
         width="100%"
         transform="translate(125.41547,-3.3749901e-6)"
         id="use3400"
         xlink:href="#use3398"
         y="0"
         x="0" />
      <use
         height="100%"
         width="100%"
         transform="translate(-33.033541,-3.3749901e-6)"
         id="use3398"
         xlink:href="#use3396"
         y="0"
         x="0" />
      <use
         height="100%"
         width="100%"
         transform="translate(30.793974,-3.3749901e-6)"
         id="use3402"
         xlink:href="#use3400"
         y="0"
         x="0" />
      <text
         sodipodi:linespacing="316.00001%"
         id="text3359"
         y="1130.7468"
         x="446.79535"
         style="font-style:normal;font-weight:normal;font-size:17.5px;line-height:316.00000858%;font-family:sans-serif;text-align:center;letter-spacing:0px;word-spacing:30.66005898px;text-anchor:middle;fill:#ffffff;fill-opacity:1;stroke:none;stroke-width:1px;stroke-linecap:butt;stroke-linejoin:miter;stroke-opacity:1"
         xml:space="preserve"><tspan
           y="1130.7468"
           x="446.79535"
           id="tspan3361"
           sodipodi:role="line">Feb Mar Apr May Jun July Aug</tspan></text>
      <rect
         ry="0"
         y="787.8139"
         x="225.14716"
         height="314.0986"
         width="342.65302"
         id="rect3382"
         style="color:#000000;clip-rule:nonzero;display:inline;overflow:visible;visibility:visible;opacity:1;isolation:auto;mix-blend-mode:normal;color-interpolation:sRGB;color-interpolation-filters:linearRGB;solid-color:#000000;solid-opacity:1;fill:url(#linearGradient3534);fill-opacity:1;fill-rule:nonzero;color-rendering:auto;image-rendering:auto;shape-rendering:auto;text-rendering:auto;enable-background:accumulate" />
      <g
         transform="translate(-42.000001,0)"
         style="stroke:#ffffff"
         id="g3350">
        <path
           style="fill:none;fill-rule:evenodd;stroke:#ffffff;stroke-width:1px;stroke-linecap:butt;stroke-linejoin:miter;stroke-opacity:1"
           d="m 267.63861,1101.0727 c 1.09517,-5.8545 3.9586,-9.5642 5.59891,-13.4374 1.27055,-7.0259 4.15859,-14.4409 5.03901,-21.8357 2.19074,-7.1146 2.90849,-14.3514 4.47913,-20.716 1.15958,-4.9992 2.25908,-10.0585 4.47912,-13.9972 2.35985,-3.259 3.15994,-8.0449 5.5989,-10.638 2.62462,-3.057 10.02459,-1.9723 11.75771,-5.5989 3.6836,-1.5513 11.77367,0.6834 14.51467,0 6.53143,-0.1615 8.16515,-3.9674 14.47218,-3.3593 6.19725,-0.8368 11.39771,-3.1431 18.60384,-2.7995 4.72237,-0.6879 11.01867,0.099 15.11704,-2.2395 3.40989,-1.4536 9.01136,-3.394 12.87748,-5.039 4.43074,-0.8968 12.92967,0.3256 14.55716,-3.35937 5.48061,-1.37257 10.33425,-4.58265 16.79671,-5.03902 4.22127,-2.60306 11.5604,-3.11874 15.67694,-5.5989 4.8247,-0.50739 6.91589,-2.97037 10.03554,-2.23957 2.41862,-0.41049 8.01152,0.5202 11.80019,0.55989 5.44132,-1.20872 10.40501,-2.26741 13.43737,-5.03901 4.20573,-1.40851 5.10868,-1.30988 10.63792,-2.23956 6.3282,0.86561 9.22714,-1.83498 12.87748,-3.35935 3.51309,-2.9567 5.19125,-4.4441 8.95825,-6.15879 1.78423,-2.11637 4.09314,-3.12803 5.5989,-5.59891 1.80886,-2.83214 6.5089,-6.45511 8.95825,-11.19781 2.54143,-2.13407 4.32451,-6.58938 7.27858,-8.39835 1.92324,-1.54293 3.96776,-6.27919 5.03652,-7.67903 0.37949,-4.57858 7.62666,-4.04271 10.08052,-4.07867 2.8769,0.3074 4.75503,-2.61667 6.71869,-2.79946 3.23114,0.26772 7.77062,-3.74669 11.7577,-4.47912 7.11124,-0.96891 13.98042,-3.50917 20.15606,-5.03902 6.83751,0.14667 12.73597,-0.96823 17.91649,-2.79945 4.01111,-0.64748 7.959,-3.94151 10.63792,-4.47912 5.13607,-2.9247 11.17816,-6.29326 15.11705,-6.1588 5.30602,-1.73461 10.30992,-3.72165 14.55715,-6.71868 3.88814,-2.80207 10.76292,-5.97909 14.55715,-9.51814 2.60648,-2.52663 3.81796,-3.34191 6.71869,-6.1588 4.90074,-3.24423 8.96868,-4.95752 13.99726,-8.39836 2.90395,-1.33609 5.32653,-3.86547 9.02409,-6.3438 4.40318,-4.47762 4.87414,-21.40819 8.33252,-24.45017 1.63478,-2.47331 1.46438,-6.94604 10.07803,-12.3176 8.61365,-5.37155 11.05553,-2.11697 15.17711,-8.14983 4.12157,-6.03286 17.09067,-4.04845 18.41632,-5.84743"
           id="path3365"
           inkscape:connector-curvature="0"
           sodipodi:nodetypes="cccccccccccccccccccccccccccccccccccccczzc" />
        <path
           style="fill:none;fill-rule:evenodd;stroke:#ffffff;stroke-width:1px;stroke-linecap:butt;stroke-linejoin:miter;stroke-opacity:1"
           d="m 265.95427,1099.6738 c 14.31603,-26.3107 30.81451,-51.4334 49.27032,-75.0254 99.08777,-126.66358 256.88819,-205.35223 417.67836,-208.27923"
           id="path3356"
           inkscape:path-effect="#path-effect3358"
           inkscape:original-d="m 265.95427,1099.6738 c 0,0 68.37003,-32.8778 49.27032,-75.0254 -19.09972,-42.14748 417.67836,-208.27923 417.67836,-208.27923"
           inkscape:connector-curvature="0"
           sodipodi:nodetypes="czc" />
      </g>
    </g>
  </g>
</svg>
